  0
SECTION
  2
HEADER
  9
$ACADVER
  1
AC1032
  9
$ACADMAINTVER
 90
      155
  9
$DWGCODEPAGE
  3
ANSI_1252
  9
$REQUIREDVERSIONS
160
                 0
  9
$INSBASE
 10
0.0
 20
0.0
 30
0.0
  9
$EXTMIN
 10
1.000000000000000E+20
 20
1.000000000000000E+20
 30
1.000000000000000E+20
  9
$EXTMAX
 10
-1.000000000000000E+20
 20
-1.000000000000000E+20
 30
-1.000000000000000E+20
  9
$LIMMIN
 10
0.0
 20
0.0
  9
$LIMMAX
 10
12.0
 20
9.0
  9
$ORTHOMODE
 70
     0
  9
$REGENMODE
 70
     1
  9
$FILLMODE
 70
     1
  9
$QTEXTMODE
 70
     0
  9
$MIRRTEXT
 70
     0
  9
$LTSCALE
 40
1.0
  9
$ATTMODE
 70
     1
  9
$TEXTSIZE
 40
0.2
  9
$TRACEWID
 40
0.05
  9
$TEXTSTYLE
  7
Standard
  9
$CLAYER
  8
0
  9
$CELTYPE
  6
ByLayer
  9
$CECOLOR
 62
   256
  9
$CELTSCALE
 40
1.0
  9
$DISPSILH
 70
     0
  9
$DIMSCALE
 40
1.0
  9
$DIMASZ
 40
0.18
  9
$DIMEXO
 40
0.0625
  9
$DIMDLI
 40
0.38
  9
$DIMRND
 40
0.0
  9
$DIMDLE
 40
0.0
  9
$DIMEXE
 40
0.18
  9
$DIMTP
 40
0.0
  9
$DIMTM
 40
0.0
  9
$DIMTXT
 40
0.18
  9
$DIMCEN
 40
0.09
  9
$DIMTSZ
 40
0.0
  9
$DIMTOL
 70
     0
  9
$DIMLIM
 70
     0
  9
$DIMTIH
 70
     1
  9
$DIMTOH
 70
     1
  9
$DIMSE1
 70
     0
  9
$DIMSE2
 70
     0
  9
$DIMTAD
 70
     0
  9
$DIMZIN
 70
     0
  9
$DIMBLK
  1

  9
$DIMASO
 70
     1
  9
$DIMSHO
 70
     1
  9
$DIMPOST
  1

  9
$DIMAPOST
  1

  9
$DIMALT
 70
     0
  9
$DIMALTD
 70
     2
  9
$DIMALTF
 40
25.4
  9
$DIMLFAC
 40
1.0
  9
$DIMTOFL
 70
     0
  9
$DIMTVP
 40
0.0
  9
$DIMTIX
 70
     0
  9
$DIMSOXD
 70
     0
  9
$DIMSAH
 70
     0
  9
$DIMBLK1
  1

  9
$DIMBLK2
  1

  9
$DIMSTYLE
  2
Standard
  9
$DIMCLRD
 70
     0
  9
$DIMCLRE
 70
     0
  9
$DIMCLRT
 70
     0
  9
$DIMTFAC
 40
1.0
  9
$DIMGAP
 40
0.09
  9
$DIMJUST
 70
     0
  9
$DIMSD1
 70
     0
  9
$DIMSD2
 70
     0
  9
$DIMTOLJ
 70
     1
  9
$DIMTZIN
 70
     0
  9
$DIMALTZ
 70
     0
  9
$DIMALTTZ
 70
     0
  9
$DIMUPT
 70
     0
  9
$DIMDEC
 70
     4
  9
$DIMTDEC
 70
     4
  9
$DIMALTU
 70
     2
  9
$DIMALTTD
 70
     2
  9
$DIMTXSTY
  7
Standard
  9
$DIMAUNIT
 70
     0
  9
$DIMADEC
 70
     0
  9
$DIMALTRND
 40
0.0
  9
$DIMAZIN
 70
     0
  9
$DIMDSEP
 70
    46
  9
$DIMATFIT
 70
     3
  9
$DIMFRAC
 70
     0
  9
$DIMLDRBLK
  1

  9
$DIMLUNIT
 70
     2
  9
$DIMLWD
 70
    -2
  9
$DIMLWE
 70
    -2
  9
$DIMTMOVE
 70
     0
  9
$DIMFXL
 40
1.0
  9
$DIMFXLON
 70
     0
  9
$DIMJOGANG
 40
0.7853981633974483
  9
$DIMTFILL
 70
     0
  9
$DIMTFILLCLR
 70
     0
  9
$DIMARCSYM
 70
     0
  9
$DIMLTYPE
  6

  9
$DIMLTEX1
  6

  9
$DIMLTEX2
  6

  9
$DIMTXTDIRECTION
 70
     0
  9
$LUNITS
 70
     2
  9
$LUPREC
 70
     4
  9
$SKETCHINC
 40
0.1
  9
$FILLETRAD
 40
0.0
  9
$AUNITS
 70
     0
  9
$AUPREC
 70
     0
  9
$MENU
  1
.
  9
$ELEVATION
 40
0.0
  9
$PELEVATION
 40
0.0
  9
$THICKNESS
 40
0.0
  9
$LIMCHECK
 70
     0
  9
$CHAMFERA
 40
0.0
  9
$CHAMFERB
 40
0.0
  9
$CHAMFERC
 40
0.0
  9
$CHAMFERD
 40
0.0
  9
$SKPOLY
 70
     0
  9
$TDCREATE
 40
2459312.881608796
  9
$TDUCREATE
 40
2459313.173275463
  9
$TDUPDATE
 40
2459312.881608796
  9
$TDUUPDATE
 40
2459313.173275463
  9
$TDINDWG
 40
0.0000000000
  9
$TDUSRTIMER
 40
0.0000000000
  9
$USRTIMER
 70
     1
  9
$ANGBASE
 50
0.0
  9
$ANGDIR
 70
     0
  9
$PDMODE
 70
     0
  9
$PDSIZE
 40
0.0
  9
$PLINEWID
 40
0.0
  9
$SPLFRAME
 70
     0
  9
$SPLINETYPE
 70
     6
  9
$SPLINESEGS
 70
     8
  9
$HANDSEED
  5
92
  9
$SURFTAB1
 70
     6
  9
$SURFTAB2
 70
     6
  9
$SURFTYPE
 70
     6
  9
$SURFU
 70
     6
  9
$SURFV
 70
     6
  9
$UCSBASE
  2

  9
$UCSNAME
  2

  9
$UCSORG
 10
0.0
 20
0.0
 30
0.0
  9
$UCSXDIR
 10
1.0
 20
0.0
 30
0.0
  9
$UCSYDIR
 10
0.0
 20
1.0
 30
0.0
  9
$UCSORTHOREF
  2

  9
$UCSORTHOVIEW
 70
     0
  9
$UCSORGTOP
 10
0.0
 20
0.0
 30
0.0
  9
$UCSORGBOTTOM
 10
0.0
 20
0.0
 30
0.0
  9
$UCSORGLEFT
 10
0.0
 20
0.0
 30
0.0
  9
$UCSORGRIGHT
 10
0.0
 20
0.0
 30
0.0
  9
$UCSORGFRONT
 10
0.0
 20
0.0
 30
0.0
  9
$UCSORGBACK
 10
0.0
 20
0.0
 30
0.0
  9
$PUCSBASE
  2

  9
$PUCSNAME
  2

  9
$PUCSORG
 10
0.0
 20
0.0
 30
0.0
  9
$PUCSXDIR
 10
1.0
 20
0.0
 30
0.0
  9
$PUCSYDIR
 10
0.0
 20
1.0
 30
0.0
  9
$PUCSORTHOREF
  2

  9
$PUCSORTHOVIEW
 70
     0
  9
$PUCSORGTOP
 10
0.0
 20
0.0
 30
0.0
  9
$PUCSORGBOTTOM
 10
0.0
 20
0.0
 30
0.0
  9
$PUCSORGLEFT
 10
0.0
 20
0.0
 30
0.0
  9
$PUCSORGRIGHT
 10
0.0
 20
0.0
 30
0.0
  9
$PUCSORGFRONT
 10
0.0
 20
0.0
 30
0.0
  9
$PUCSORGBACK
 10
0.0
 20
0.0
 30
0.0
  9
$USERI1
 70
     0
  9
$USERI2
 70
     0
  9
$USERI3
 70
     0
  9
$USERI4
 70
     0
  9
$USERI5
 70
     0
  9
$USERR1
 40
0.0
  9
$USERR2
 40
0.0
  9
$USERR3
 40
0.0
  9
$USERR4
 40
0.0
  9
$USERR5
 40
0.0
  9
$WORLDVIEW
 70
     1
  9
$SHADEDGE
 70
     3
  9
$SHADEDIF
 70
    70
  9
$TILEMODE
 70
     1
  9
$MAXACTVP
 70
    64
  9
$PINSBASE
 10
0.0
 20
0.0
 30
0.0
  9
$PLIMCHECK
 70
     0
  9
$PEXTMIN
 10
1.000000000000000E+20
 20
1.000000000000000E+20
 30
1.000000000000000E+20
  9
$PEXTMAX
 10
-1.000000000000000E+20
 20
-1.000000000000000E+20
 30
-1.000000000000000E+20
  9
$PLIMMIN
 10
0.0
 20
0.0
  9
$PLIMMAX
 10
12.0
 20
9.0
  9
$UNITMODE
 70
     0
  9
$VISRETAIN
 70
     1
  9
$PLINEGEN
 70
     0
  9
$PSLTSCALE
 70
     1
  9
$TREEDEPTH
 70
  3020
  9
$CMLSTYLE
  2
Standard
  9
$CMLJUST
 70
     0
  9
$CMLSCALE
 40
1.0
  9
$PROXYGRAPHICS
 70
     1
  9
$MEASUREMENT
 70
     0
  9
$CELWEIGHT
370
    -1
  9
$ENDCAPS
280
     0
  9
$JOINSTYLE
280
     0
  9
$LWDISPLAY
290
     1
  9
$INSUNITS
 70
     0
  9
$HYPERLINKBASE
  1

  9
$STYLESHEET
  1

  9
$XEDIT
290
     1
  9
$CEPSNTYPE
380
     0
  9
$PSTYLEMODE
290
     1
  9
$FINGERPRINTGUID
  2
{E084BA47-ADA6-5F45-91FA-5FA728E558FC}
  9
$VERSIONGUID
  2
{5D2EBA39-D5FE-484A-84A7-61CF1943BFFC}
  9
$EXTNAMES
290
     1
  9
$PSVPSCALE
 40
0.0
  9
$OLESTARTUP
290
     0
  9
$SORTENTS
280
   127
  9
$INDEXCTL
280
     0
  9
$HIDETEXT
280
     1
  9
$XCLIPFRAME
280
     2
  9
$HALOGAP
280
     0
  9
$OBSCOLOR
 70
   257
  9
$OBSLTYPE
280
     0
  9
$INTERSECTIONDISPLAY
280
     0
  9
$INTERSECTIONCOLOR
 70
   257
  9
$DIMASSOC
280
     2
  9
$PROJECTNAME
  1

  9
$CAMERADISPLAY
290
     0
  9
$LENSLENGTH
 40
50.0
  9
$CAMERAHEIGHT
 40
0.0
  9
$STEPSPERSEC
 40
2.0
  9
$STEPSIZE
 40
6.0
  9
$3DDWFPREC
 40
2.0
  9
$PSOLWIDTH
 40
0.25
  9
$PSOLHEIGHT
 40
4.0
  9
$LOFTANG1
 40
1.570796326794896
  9
$LOFTANG2
 40
1.570796326794896
  9
$LOFTMAG1
 40
0.0
  9
$LOFTMAG2
 40
0.0
  9
$LOFTPARAM
 70
     7
  9
$LOFTNORMALS
280
     1
  9
$LATITUDE
 40
37.795
  9
$LONGITUDE
 40
-122.394
  9
$NORTHDIRECTION
 40
0.0
  9
$TIMEZONE
 70
 -8000
  9
$LIGHTGLYPHDISPLAY
280
     1
  9
$TILEMODELIGHTSYNCH
280
     1
  9
$CMATERIAL
347
11
  9
$SOLIDHIST
280
     0
  9
$SHOWHIST
280
     1
  9
$DWFFRAME
280
     2
  9
$DGNFRAME
280
     0
  9
$REALWORLDSCALE
290
     1
  9
$INTERFERECOLOR
 62
     1
  9
$INTERFEREOBJVS
345
33
  9
$INTERFEREVPVS
346
30
  9
$CSHADOW
280
     0
  9
$SHADOWPLANELOCATION
 40
0.0
  0
ENDSEC
  0
SECTION
  2
CLASSES
  0
CLASS
  1
ACDBDICTIONARYWDFLT
  2
AcDbDictionaryWithDefault
  3
ObjectDBX Classes
 90
        0
 91
        1
280
     0
281
     0
  0
CLASS
  1
MATERIAL
  2
AcDbMaterial
  3
ObjectDBX Classes
 90
     1153
 91
        3
280
     0
281
     0
  0
CLASS
  1
VISUALSTYLE
  2
AcDbVisualStyle
  3
ObjectDBX Classes
 90
     4095
 91
       24
280
     0
281
     0
  0
CLASS
  1
SCALE
  2
AcDbScale
  3
ObjectDBX Classes
 90
     1153
 91
       17
280
     0
281
     0
  0
CLASS
  1
TABLESTYLE
  2
AcDbTableStyle
  3
ObjectDBX Classes
 90
     4095
 91
        1
280
     0
281
     0
  0
CLASS
  1
MLEADERSTYLE
  2
AcDbMLeaderStyle
  3
ACDB_MLEADERSTYLE_CLASS
 90
     4095
 91
        1
280
     0
281
     0
  0
CLASS
  1
ACDBSECTIONVIEWSTYLE
  2
AcDbSectionViewStyle
  3
ObjectDBX Classes
 90
     1025
 91
        1
280
     0
281
     0
  0
CLASS
  1
ACDBDETAILVIEWSTYLE
  2
AcDbDetailViewStyle
  3
ObjectDBX Classes
 90
     1025
 91
        1
280
     0
281
     0
  0
CLASS
  1
DICTIONARYVAR
  2
AcDbDictionaryVar
  3
ObjectDBX Classes
 90
        0
 91
        5
280
     0
281
     0
  0
CLASS
  1
CELLSTYLEMAP
  2
AcDbCellStyleMap
  3
ObjectDBX Classes
 90
     1152
 91
        1
280
     0
281
     0
  0
ENDSEC
  0
SECTION
  2
TABLES
  0
TABLE
  2
VPORT
  5
8
330
0
100
AcDbSymbolTable
 70
     1
  0
VPORT
  5
57
330
8
100
AcDbSymbolTableRecord
100
AcDbViewportTableRecord
  2
*Active
 70
     0
 10
0.0
 20
0.0
 11
1.0
 21
1.0
 12
0.0
 22
0.0
 13
0.0
 23
0.0
 14
1.0
 24
1.0
 15
0.0
 25
0.0
 16
0.0
 26
0.0
 36
1.0
 17
960.0
 27
540.0
 37
0.0
 40
1101.6
 41
1.777777777777777
 42
50.0
 43
0.0
 44
0.0
 50
0.0
 51
0.0
 71
     0
 72
   100
 73
     1
 74
     0
 75
     1
 76
     0
 77
     0
 78
     0
281
     0
 65
     1
110
0.0
120
0.0
130
0.0
111
1.0
121
0.0
131
0.0
112
0.0
122
1.0
132
0.0
 79
     0
146
0.0
 60
     3
 61
     5
292
     1
282
     1
141
0.0
142
0.0
 63
   250
421
  3355443
  0
ENDTAB
  0
TABLE
  2
LTYPE
  5
5
330
0
100
AcDbSymbolTable
 70
     1
  0
LTYPE
  5
5B
330
5
100
AcDbSymbolTableRecord
100
AcDbLinetypeTableRecord
  2
ByBlock
 70
     0
  3

 72
    65
 73
     0
 40
0.0
  0
LTYPE
  5
5C
330
5
100
AcDbSymbolTableRecord
100
AcDbLinetypeTableRecord
  2
ByLayer
 70
     0
  3

 72
    65
 73
     0
 40
0.0
  0
LTYPE
  5
5D
330
5
100
AcDbSymbolTableRecord
100
AcDbLinetypeTableRecord
  2
Continuous
 70
     0
  3
Solid line
 72
    65
 73
     0
 40
0.0
  0
ENDTAB
  0
TABLE
  2
LAYER
  5
2
330
0
100
AcDbSymbolTable
 70
     2
  0
LAYER
  5
54
330
2
100
AcDbSymbolTableRecord
100
AcDbLayerTableRecord
  2
0
 70
     0
 62
     7
  6
Continuous
370
    -3
390
F
347
21
348
0
  0
LAYER
  5
78
330
2
100
AcDbSymbolTableRecord
100
AcDbLayerTableRecord
  2
Layer 1
 70
     0
 62
     7
  6
Continuous
370
     0
390
F
347
21
348
0
  0
ENDTAB
  0
TABLE
  2
STYLE
  5
3
330
0
100
AcDbSymbolTable
 70
     2
  0
STYLE
  5
55
330
3
100
AcDbSymbolTableRecord
100
AcDbTextStyleTableRecord
  2
Standard
 70
     0
 40
0.0
 41
1.0
 50
0.0
 71
     0
 42
0.2
  3
txt
  4

  0
STYLE
  5
5A
330
3
100
AcDbSymbolTableRecord
100
AcDbTextStyleTableRecord
  2
Annotative
 70
     0
 40
0.0
 41
1.0
 50
0.0
 71
     0
 42
0.2
  3
txt
  4

1001
AcadAnnotative
1000
AnnotativeData
1002
{
1070
     1
1070
     1
1002
}
  0
ENDTAB
  0
TABLE
  2
VIEW
  5
6
330
0
100
AcDbSymbolTable
 70
     0
  0
ENDTAB
  0
TABLE
  2
UCS
  5
7
330
0
100
AcDbSymbolTable
 70
     0
  0
ENDTAB
  0
TABLE
  2
APPID
  5
9
330
0
100
AcDbSymbolTable
 70
     2
  0
APPID
  5
56
330
9
100
AcDbSymbolTableRecord
100
AcDbRegAppTableRecord
  2
ACAD
 70
     0
  0
APPID
  5
5E
330
9
100
AcDbSymbolTableRecord
100
AcDbRegAppTableRecord
  2
AcadAnnotative
 70
     0
  0
ENDTAB
  0
TABLE
  2
DIMSTYLE
  5
A
330
0
100
AcDbSymbolTable
 70
     2
100
AcDbDimStyleTable
 71
     0
  0
DIMSTYLE
105
58
330
A
100
AcDbSymbolTableRecord
100
AcDbDimStyleTableRecord
  2
Standard
 70
     0
340
55
  0
DIMSTYLE
105
59
330
A
100
AcDbSymbolTableRecord
100
AcDbDimStyleTableRecord
  2
Annotative
 70
     0
340
55
1001
AcadAnnotative
1000
AnnotativeData
1002
{
1070
     1
1070
     1
1002
}
  0
ENDTAB
  0
TABLE
  2
BLOCK_RECORD
  5
1
330
0
100
AcDbSymbolTable
 70
     3
  0
BLOCK_RECORD
  5
70
330
1
100
AcDbSymbolTableRecord
100
AcDbBlockTableRecord
  2
*Model_Space
340
73
 70
     0
280
     1
281
     0
  0
BLOCK_RECORD
  5
6C
330
1
100
AcDbSymbolTableRecord
100
AcDbBlockTableRecord
  2
*Paper_Space
340
6F
 70
     0
280
     1
281
     0
  0
BLOCK_RECORD
  5
74
330
1
100
AcDbSymbolTableRecord
100
AcDbBlockTableRecord
  2
*Paper_Space0
340
77
 70
     0
280
     1
281
     0
  0
BLOCK_RECORD
  5
79
330
1
100
AcDbSymbolTableRecord
100
AcDbBlockTableRecord
  2
Block_0
340
0
102
{BLKREFS
331
7A
102
}
 70
     0
280
     1
281
     0
  0
BLOCK_RECORD
  5
7D
330
1
100
AcDbSymbolTableRecord
100
AcDbBlockTableRecord
  2
Block_1
340
0
102
{BLKREFS
331
7E
102
}
 70
     0
280
     1
281
     0
  0
ENDTAB
  0
ENDSEC
  0
SECTION
  2
BLOCKS
  0
BLOCK
  5
71
330
70
100
AcDbEntity
  8
0
100
AcDbBlockBegin
  2
*Model_Space
 70
     0
 10
0.0
 20
0.0
 30
0.0
  3
*Model_Space
  1

  0
ENDBLK
  5
72
330
70
100
AcDbEntity
  8
0
100
AcDbBlockEnd
  0
BLOCK
  5
6D
330
6C
100
AcDbEntity
 67
     1
  8
0
100
AcDbBlockBegin
  2
*Paper_Space
 70
     0
 10
0.0
 20
0.0
 30
0.0
  3
*Paper_Space
  1

  0
ENDBLK
  5
6E
330
6C
100
AcDbEntity
 67
     1
  8
0
100
AcDbBlockEnd
  0
BLOCK
  5
75
330
74
100
AcDbEntity
 67
     1
  8
0
100
AcDbBlockBegin
  2
*Paper_Space0
 70
     0
 10
0.0
 20
0.0
 30
0.0
  3
*Paper_Space0
  1

  0
ENDBLK
  5
76
330
74
100
AcDbEntity
 67
     1
  8
0
100
AcDbBlockEnd
  0
BLOCK
  5
7B
330
79
100
AcDbEntity
  8
0
100
AcDbBlockBegin
  2
Block_0
 70
     0
 10
0.0
 20
0.0
 30
0.0
  3
Block_0
  1

  0
INSERT
  5
7E
330
79
100
AcDbEntity
  8
Layer 1
100
AcDbBlockReference
  2
Block_1
 10
0.0
 20
0.0
 30
0.0
  0
ENDBLK
  5
7C
330
79
100
AcDbEntity
  8
0
100
AcDbBlockEnd
  0
BLOCK
  5
7F
330
7D
100
AcDbEntity
  8
0
100
AcDbBlockBegin
  2
Block_1
 70
     0
 10
0.0
 20
0.0
 30
0.0
  3
Block_1
  1

  0
SPLINE
  5
81
330
7D
100
AcDbEntity
  8
Layer 1
100
AcDbSpline
210
0.0
220
0.0
230
1.0
 70
     9
 71
     3
 72
   188
 73
   184
 74
     0
 42
0.0000000001
 43
0.0000000001
 40
0.0
 40
0.0
 40
0.0
 40
0.0
 40
1.0
 40
1.0
 40
1.0
 40
2.0
 40
2.0
 40
2.0
 40
3.0
 40
3.0
 40
3.0
 40
4.0
 40
4.0
 40
4.0
 40
5.0
 40
5.0
 40
5.0
 40
6.0
 40
6.0
 40
6.0
 40
7.0
 40
7.0
 40
7.0
 40
8.0
 40
8.0
 40
8.0
 40
9.0
 40
9.0
 40
9.0
 40
10.0
 40
10.0
 40
10.0
 40
11.0
 40
11.0
 40
11.0
 40
12.0
 40
12.0
 40
12.0
 40
13.0
 40
13.0
 40
13.0
 40
14.0
 40
14.0
 40
14.0
 40
15.0
 40
15.0
 40
15.0
 40
16.0
 40
16.0
 40
16.0
 40
17.0
 40
17.0
 40
17.0
 40
18.0
 40
18.0
 40
18.0
 40
19.0
 40
19.0
 40
19.0
 40
20.0
 40
20.0
 40
20.0
 40
21.0
 40
21.0
 40
21.0
 40
22.0
 40
22.0
 40
22.0
 40
23.0
 40
23.0
 40
23.0
 40
24.0
 40
24.0
 40
24.0
 40
25.0
 40
25.0
 40
25.0
 40
26.0
 40
26.0
 40
26.0
 40
27.0
 40
27.0
 40
27.0
 40
28.0
 40
28.0
 40
28.0
 40
29.0
 40
29.0
 40
29.0
 40
30.0
 40
30.0
 40
30.0
 40
31.0
 40
31.0
 40
31.0
 40
32.0
 40
32.0
 40
32.0
 40
33.0
 40
33.0
 40
33.0
 40
34.0
 40
34.0
 40
34.0
 40
35.0
 40
35.0
 40
35.0
 40
36.0
 40
36.0
 40
36.0
 40
37.0
 40
37.0
 40
37.0
 40
38.0
 40
38.0
 40
38.0
 40
39.0
 40
39.0
 40
39.0
 40
40.0
 40
40.0
 40
40.0
 40
41.0
 40
41.0
 40
41.0
 40
42.0
 40
42.0
 40
42.0
 40
43.0
 40
43.0
 40
43.0
 40
44.0
 40
44.0
 40
44.0
 40
45.0
 40
45.0
 40
45.0
 40
46.0
 40
46.0
 40
46.0
 40
47.0
 40
47.0
 40
47.0
 40
48.0
 40
48.0
 40
48.0
 40
49.0
 40
49.0
 40
49.0
 40
50.0
 40
50.0
 40
50.0
 40
51.0
 40
51.0
 40
51.0
 40
52.0
 40
52.0
 40
52.0
 40
53.0
 40
53.0
 40
53.0
 40
54.0
 40
54.0
 40
54.0
 40
55.0
 40
55.0
 40
55.0
 40
56.0
 40
56.0
 40
56.0
 40
57.0
 40
57.0
 40
57.0
 40
58.0
 40
58.0
 40
58.0
 40
59.0
 40
59.0
 40
59.0
 40
60.0
 40
60.0
 40
60.0
 40
61.0
 40
61.0
 40
61.0
 40
61.0
 10
728.4832797608278
 20
591.8919541742853
 30
0.0
 10
724.6240722303173
 20
593.6634366479738
 30
0.0
 10
722.1356310236187
 20
594.9890494827704
 30
0.0
 10
719.5159312119021
 20
595.9608999995034
 30
0.0
 10
716.3766005789284
 20
597.1254967224922
 30
0.0
 10
712.6321203045308
 20
599.5079704761792
 30
0.0
 10
710.0259065932369
 20
598.6625824715256
 30
0.0
 10
704.7338218813965
 20
596.9459828355666
 30
0.0
 10
699.7507650168135
 20
593.7925853056149
 30
0.0
 10
695.2208892092967
 20
590.4458463439714
 30
0.0
 10
693.3670045172121
 20
589.0761715646458
 30
0.0
 10
692.1393267110698
 20
585.6713141808431
 30
0.0
 10
692.1360524965357
 20
583.1903229862364
 30
0.0
 10
692.1216009225973
 20
572.2535439712555
 30
0.0
 10
692.1575104316453
 20
561.2689485128357
 30
0.0
 10
693.1821564078846
 20
550.396545418198
 30
0.0
 10
693.7928775565569
 20
543.9162650366943
 30
0.0
 10
693.5266205676843
 20
537.1131893220408
 30
0.0
 10
698.0927760460327
 20
531.2241509457762
 30
0.0
 10
706.2899743847546
 20
520.6521535505417
 30
0.0
 10
717.2450230183557
 20
513.925770344118
 30
0.0
 10
728.7413779260714
 20
507.949737480907
 30
0.0
 10
731.7216992686089
 20
506.4005335524634
 30
0.0
 10
735.8809668093672
 20
505.712605569186
 30
0.0
 10
739.1157533891337
 20
506.4085614647683
 30
0.0
 10
743.3250271154993
 20
507.3141282873221
 30
0.0
 10
744.422293491014
 20
505.9383333695295
 30
0.0
 10
745.0688325623141
 20
502.4011985789948
 30
0.0
 10
747.7555507372499
 20
487.7024879667697
 30
0.0
 10
754.6176632951583
 20
475.0905156391781
 30
0.0
 10
766.0949605952037
 20
465.6837865033231
 30
0.0
 10
775.9205349620715
 20
457.6308136818989
 30
0.0
 10
786.5762333801821
 20
450.5410071907045
 30
0.0
 10
797.1794069861226
 20
443.4987271613263
 30
0.0
 10
809.6768319989942
 20
435.1983847531592
 30
0.0
 10
822.4689363199086
 20
427.3370134736905
 30
0.0
 10
835.2155832474345
 20
419.4177374427344
 30
0.0
 10
846.1422095618654
 20
412.6292371201925
 30
0.0
 10
857.2195260668687
 20
406.4385568070811
 30
0.0
 10
870.9491700459002
 20
407.8972254203344
 30
0.0
 10
876.8834511062669
 20
408.5277370422281
 30
0.0
 10
883.0051332474322
 20
407.4618866930195
 30
0.0
 10
888.922073945514
 20
408.1682819270354
 30
0.0
 10
893.96543283581
 20
408.770344825476
 30
0.0
 10
899.5751010930272
 20
409.7005142994276
 30
0.0
 10
903.6484682035334
 20
412.4146812434373
 30
0.0
 10
916.4161036857622
 20
420.9219789573962
 30
0.0
 10
928.7385375778157
 20
430.1295059803342
 30
0.0
 10
940.9166312711205
 20
439.4782693159395
 30
0.0
 10
949.5118336646427
 20
446.0765722180695
 30
0.0
 10
957.7909407921215
 20
453.1252013187749
 30
0.0
 10
965.837113123398
 20
460.3871347966014
 30
0.0
 10
971.8811452443606
 20
465.8420859451853
 30
0.0
 10
977.6771308097341
 20
471.6603688053983
 30
0.0
 10
982.9539434859507
 20
477.8532163495892
 30
0.0
 10
989.0494777040567
 20
485.0070019441682
 30
0.0
 10
992.5067124348789
 20
493.7012614941123
 30
0.0
 10
994.9597631222459
 20
502.7199952181818
 30
0.0
 10
995.7628233862251
 20
505.6724354832822
 30
0.0
 10
996.8618604325365
 20
508.0981470232018
 30
0.0
 10
1000.235934693521
 20
506.3111276393865
 30
0.0
 10
1003.795990445786
 20
504.4256671256043
 30
0.0
 10
1006.820479339622
 20
504.904167328199
 30
0.0
 10
1009.894028026052
 20
506.9869069188735
 30
0.0
 10
1013.807515775128
 20
509.6388346492386
 30
0.0
 10
1017.917822741912
 20
512.0609137877709
 30
0.0
 10
1021.541531056444
 20
515.0663749033392
 30
0.0
 10
1027.759485789986
 20
520.2234996627485
 30
0.0
 10
1033.807364540611
 20
525.6076342465203
 30
0.0
 10
1039.656928161992
 20
531.1795853489548
 30
0.0
 10
1044.013846830446
 20
535.3296802420845
 30
0.0
 10
1049.76651201891
 20
538.986348510125
 30
0.0
 10
1049.984487699763
 20
545.7340835213253
 30
0.0
 10
1050.511018031366
 20
562.0344542114053
 30
0.0
 10
1050.75729391616
 20
578.2322477178386
 30
0.0
 10
1043.95242287108
 20
593.8264521067631
 30
0.0
 10
1038.541313973564
 20
606.2266615384924
 30
0.0
 10
1025.314281005976
 20
606.5882686225722
 30
0.0
 10
1017.716943192892
 20
600.1887557542131
 30
0.0
 10
1016.575684806717
 20
599.2274361490581
 30
0.0
 10
1015.199690424735
 20
598.544712572806
 30
0.0
 10
1013.105627977023
 20
597.2037764985552
 30
0.0
 10
1013.105627977023
 20
599.9481931045165
 30
0.0
 10
1012.970293776292
 20
601.5910610972396
 30
0.0
 10
1013.126876026585
 20
603.2056177262274
 30
0.0
 10
1014.448468074775
 20
616.8328004543082
 30
0.0
 10
1015.977320192614
 20
630.4417906510825
 30
0.0
 10
1017.132591301129
 20
644.082602515451
 30
0.0
 10
1018.023147125517
 20
654.5974430065435
 30
0.0
 10
1018.82239128864
 20
665.1434641532205
 30
0.0
 10
1019.023331895274
 20
675.6877911967303
 30
0.0
 10
1019.336252165405
 20
692.106741477396
 30
0.0
 10
1016.725459133086
 20
707.9137465911462
 30
0.0
 10
1008.094110632262
 20
722.3679569084761
 30
0.0
 10
1000.269211092978
 20
735.4716503113477
 30
0.0
 10
990.1476904725841
 20
746.4950041030315
 30
0.0
 10
977.6716966821149
 20
755.0142292190176
 30
0.0
 10
964.756271245964
 20
763.8335318973068
 30
0.0
 10
951.0576903278925
 20
771.4066404578425
 30
0.0
 10
935.9639124083368
 20
776.1653819769253
 30
0.0
 10
927.2622865941649
 20
778.9088160793608
 30
0.0
 10
918.7407502115529
 20
782.2294442943912
 30
0.0
 10
909.0773753954364
 20
781.887652303265
 30
0.0
 10
909.0773753954364
 20
780.7836293073606
 30
0.0
 10
908.9008883630832
 20
779.9218745109628
 30
0.0
 10
909.1032332948325
 20
779.1607948476949
 30
0.0
 10
914.0882821640607
 20
760.4093563956357
 30
0.0
 10
911.3742101781936
 20
741.2616218078264
 30
0.0
 10
912.054972041964
 20
722.2913025557227
 30
0.0
 10
912.1266231516219
 20
720.2949927509408
 30
0.0
 10
912.0065228255061
 20
718.2925017589277
 30
0.0
 10
912.0116821938626
 20
716.2929716319094
 30
0.0
 10
912.0427605192272
 20
704.2532169888618
 30
0.0
 10
911.8946347484307
 20
692.2079679571643
 30
0.0
 10
912.2449222781343
 20
680.1773172108651
 30
0.0
 10
912.3426755176424
 20
676.8190629263426
 30
0.0
 10
914.3741539113289
 20
674.2969096034376
 30
0.0
 10
918.5300098579228
 20
673.9966870503231
 30
0.0
 10
929.6776952626968
 20
673.1913546651431
 30
0.0
 10
940.8084982372857
 20
672.127671547013
 30
0.0
 10
951.9319742982334
 20
671.0249782694727
 30
0.0
 10
955.8134983865457
 20
670.6402108110169
 30
0.0
 10
959.7199645100463
 20
670.1050878809528
 30
0.0
 10
963.4954315233882
 20
669.1605948410369
 30
0.0
 10
967.6067459408004
 20
668.1320758102629
 30
0.0
 10
968.2362499378815
 20
665.3978085611124
 30
0.0
 10
965.1013078208926
 20
662.6808333740163
 30
0.0
 10
960.889095696868
 20
659.0301936713004
 30
0.0
 10
956.5628279504817
 20
655.5003236835355
 30
0.0
 10
952.1507742568719
 20
652.0930853979852
 30
0.0
 10
941.5297412989275
 20
643.8908941381614
 30
0.0
 10
930.8783321781774
 20
635.7262936540128
 30
0.0
 10
920.1506315691295
 20
627.6643161400807
 30
0.0
 10
905.7679611473449
 20
616.8555411184398
 30
0.0
 10
891.3040535705532
 20
606.1547918825208
 30
0.0
 10
876.869621556767
 20
595.4149561762387
 30
0.0
 10
873.8195647872016
 20
593.1455752555848
 30
0.0
 10
870.7326597477768
 20
592.9653287835044
 30
0.0
 10
867.5444143340401
 20
595.2153419841706
 30
0.0
 10
854.9975937116979
 20
604.0699155851498
 30
0.0
 10
842.0921969885931
 20
612.4584887177116
 30
0.0
 10
829.9558819674521
 20
621.8423703541011
 30
0.0
 10
813.4788590742891
 20
634.5825298213185
 30
0.0
 10
797.5469890849035
 20
648.030915985435
 30
0.0
 10
781.5119469927958
 20
661.3329682651901
 30
0.0
 10
780.2076037204715
 20
662.4149812743417
 30
0.0
 10
779.1528029152742
 20
664.8273689217858
 30
0.0
 10
779.4016432198422
 20
666.3965205334643
 30
0.0
 10
779.5730166770499
 20
667.4771904698346
 30
0.0
 10
782.1189817880413
 20
668.7159309152084
 30
0.0
 10
783.7378480928555
 20
668.9479162137359
 30
0.0
 10
796.5408817266188
 20
670.7826375745607
 30
0.0
 10
809.3772833462608
 20
672.3838855732647
 30
0.0
 10
822.2009849822562
 20
674.0753407500578
 30
0.0
 10
827.6634280684765
 20
674.7958535104644
 30
0.0
 10
830.5642142369888
 20
677.9095617135189
 30
0.0
 10
831.0286489754762
 20
683.4812991452845
 30
0.0
 10
831.370418968072
 20
687.5812577419901
 30
0.0
 10
831.7004811632441
 20
691.6822083810902
 30
0.0
 10
832.0498375643401
 20
695.7815107035967
 30
0.0
 10
834.2404931569017
 20
721.4857412376813
 30
0.0
 10
837.0253156526242
 20
747.1587720384432
 30
0.0
 10
836.0521488769228
 20
773.0278914652235
 30
0.0
 10
836.0087063847858
 20
774.1828539303378
 30
0.0
 10
836.0321830372477
 20
775.3724272283961
 30
0.0
 10
836.2566460895532
 20
776.4996602007959
 30
0.0
 10
837.0995006532503
 20
780.7323884098841
 30
0.0
 10
836.2784589220419
 20
781.6057997044226
 30
0.0
 10
832.2835355807164
 20
780.7228419096055
 30
0.0
 10
813.9825233295677
 20
776.6779359425018
 30
0.0
 10
796.4683910747726
 20
770.4897281042822
 30
0.0
 10
779.7034052110721
 20
762.0594624822952
 30
0.0
 10
759.237847129415
 20
751.768369522304
 30
0.0
 10
743.5316689768106
 20
737.0772251411136
 30
0.0
 10
733.8837112081501
 20
715.9126759953269
 30
0.0
 10
723.9156207387423
 20
694.0458638536529
 30
0.0
 10
718.7895440463071
 20
671.40031369408
 30
0.0
 10
721.0758158618973
 20
647.4063718801025
 30
0.0
 10
722.1604509435811
 20
636.0233569336533
 30
0.0
 10
724.2587187344361
 20
624.7387220684077
 30
0.0
 10
725.8145506853233
 20
613.3980902255107
 30
0.0
 10
726.7229429651079
 20
606.776741415435
 30
0.0
 10
727.4670749996803
 20
600.1328503497061
 30
0.0
 10
728.4832797608278
 20
591.8919541742853
 30
0.0
  0
SPLINE
  5
82
330
7D
100
AcDbEntity
  8
Layer 1
100
AcDbSpline
210
0.0
220
0.0
230
1.0
 70
     9
 71
     3
 72
    17
 73
    13
 74
     0
 42
0.0000000001
 43
0.0000000001
 40
0.0
 40
0.0
 40
0.0
 40
0.0
 40
1.0
 40
1.0
 40
1.0
 40
2.0
 40
2.0
 40
2.0
 40
3.0
 40
3.0
 40
3.0
 40
4.0
 40
4.0
 40
4.0
 40
4.0
 10
1167.0
 20
398.0
 30
0.0
 10
989.7373833086275
 20
398.0
 30
0.0
 10
812.3863857214482
 20
398.0
 30
0.0
 10
635.0
 20
398.0
 30
0.0
 10
635.0
 20
530.9703407145589
 30
0.0
 10
635.0
 20
663.9406966913083
 30
0.0
 10
635.0
 20
797.0
 30
0.0
 10
812.2562261534776
 20
797.0
 30
0.0
 10
989.547921533367
 20
797.0
 30
0.0
 10
1167.0
 20
797.0
 30
0.0
 10
1167.0
 20
664.0594517970876
 30
0.0
 10
1167.0
 20
531.0297411607352
 30
0.0
 10
1167.0
 20
398.0
 30
0.0
  0
SPLINE
  5
83
330
7D
100
AcDbEntity
  8
Layer 1
100
AcDbSpline
210
0.0
220
0.0
230
1.0
 70
     9
 71
     3
 72
    35
 73
    31
 74
     0
 42
0.0000000001
 43
0.0000000001
 40
0.0
 40
0.0
 40
0.0
 40
0.0
 40
1.0
 40
1.0
 40
1.0
 40
2.0
 40
2.0
 40
2.0
 40
3.0
 40
3.0
 40
3.0
 40
4.0
 40
4.0
 40
4.0
 40
5.0
 40
5.0
 40
5.0
 40
6.0
 40
6.0
 40
6.0
 40
7.0
 40
7.0
 40
7.0
 40
8.0
 40
8.0
 40
8.0
 40
9.0
 40
9.0
 40
9.0
 40
10.0
 40
10.0
 40
10.0
 40
10.0
 10
809.4599095619788
 20
547.8747278634873
 30
0.0
 10
819.1426091128251
 20
547.4299571023238
 30
0.0
 10
827.4289057743162
 20
551.1872489935995
 30
0.0
 10
835.2446772003549
 20
556.1768254235866
 30
0.0
 10
836.5470818934445
 20
557.0082790481373
 30
0.0
 10
837.8480669970159
 20
558.949171838516
 30
0.0
 10
837.9068502145901
 20
560.4268113548005
 30
0.0
 10
838.1454633688672
 20
566.4265616623488
 30
0.0
 10
836.5721613082651
 20
571.7213666439966
 30
0.0
 10
830.9084112697291
 20
575.1053606131208
 30
0.0
 10
826.5737175726552
 20
577.6952475383204
 30
0.0
 10
822.4025819582376
 20
580.5636541814674
 30
0.0
 10
818.2062448137711
 20
583.3790552363407
 30
0.0
 10
811.088880901857
 20
588.1541978870955
 30
0.0
 10
803.5096161424226
 20
591.8053565042955
 30
0.0
 10
794.9334942531777
 20
593.0152971958323
 30
0.0
 10
792.2019292609903
 20
593.4006827730118
 30
0.0
 10
788.7161500957717
 20
594.7533554719048
 30
0.0
 10
786.816281388381
 20
593.6072259996544
 30
0.0
 10
779.3532397965946
 20
589.1049255319103
 30
0.0
 10
772.3444668506171
 20
583.8390424016251
 30
0.0
 10
765.2503964183233
 20
578.7406923385715
 30
0.0
 10
761.7323940974829
 20
576.2123730906278
 30
0.0
 10
762.5650215108881
 20
572.9911503852381
 30
0.0
 10
764.6039641978477
 20
570.0574368281177
 30
0.0
 10
766.2840712891866
 20
567.6400126577446
 30
0.0
 10
768.2193839413202
 20
565.3462427563645
 30
0.0
 10
770.3245741391274
 20
563.2868543174481
 30
0.0
 10
781.2024612134345
 20
552.6456886739943
 30
0.0
 10
794.7972441882421
 20
548.8606653822298
 30
0.0
 10
809.4599095619788
 20
547.8747278634873
 30
0.0
  0
SPLINE
  5
84
330
7D
100
AcDbEntity
  8
Layer 1
100
AcDbSpline
210
0.0
220
0.0
230
1.0
 70
     9
 71
     3
 72
    32
 73
    28
 74
     0
 42
0.0000000001
 43
0.0000000001
 40
0.0
 40
0.0
 40
0.0
 40
0.0
 40
1.0
 40
1.0
 40
1.0
 40
2.0
 40
2.0
 40
2.0
 40
3.0
 40
3.0
 40
3.0
 40
4.0
 40
4.0
 40
4.0
 40
5.0
 40
5.0
 40
5.0
 40
6.0
 40
6.0
 40
6.0
 40
7.0
 40
7.0
 40
7.0
 40
8.0
 40
8.0
 40
8.0
 40
9.0
 40
9.0
 40
9.0
 40
9.0
 10
939.0301647099331
 20
543.8562846272725
 30
0.0
 10
941.7842904903773
 20
544.052373253291
 30
0.0
 10
943.8802762529212
 20
543.8251955448304
 30
0.0
 10
945.7313599269783
 20
544.3943684223304
 30
0.0
 10
957.9066449700532
 20
548.138214323606
 30
0.0
 10
967.6161182845007
 20
555.8083045671228
 30
0.0
 10
976.1141474858449
 20
564.8817532448247
 30
0.0
 10
978.6447413425904
 20
567.5837256984705
 30
0.0
 10
982.1467618330498
 20
571.6099068653675
 30
0.0
 10
978.4093031842239
 20
576.1532931504571
 30
0.0
 10
972.7907815730249
 20
582.9833371560635
 30
0.0
 10
965.2339554866193
 20
587.3883564203315
 30
0.0
 10
956.9639154147717
 20
589.3257541690418
 30
0.0
 10
949.8525351489988
 20
590.9916833319003
 30
0.0
 10
942.1369287382095
 20
593.9306776070025
 30
0.0
 10
934.7916978120265
 20
589.0971876012281
 30
0.0
 10
932.7738657949977
 20
587.769361748782
 30
0.0
 10
930.3272566858741
 20
587.0732379691016
 30
0.0
 10
928.3689863709932
 20
585.6780448069384
 30
0.0
 10
919.8817033096585
 20
579.6310427570061
 30
0.0
 10
909.5308197634604
 20
575.7665645004963
 30
0.0
 10
905.6022813126128
 20
564.4820822571582
 30
0.0
 10
904.3411057731645
 20
560.8594334121735
 30
0.0
 10
904.7008877617972
 20
558.8717772695126
 30
0.0
 10
907.13910144904
 20
556.417189664804
 30
0.0
 10
916.169827800968
 20
547.3258536996109
 30
0.0
 10
927.8766177742472
 20
545.4344561936486
 30
0.0
 10
939.0301647099331
 20
543.8562846272725
 30
0.0
  0
SPLINE
  5
85
330
7D
100
AcDbEntity
  8
Layer 1
100
AcDbSpline
210
0.0
220
0.0
230
1.0
 70
     9
 71
     3
 72
   188
 73
   184
 74
     0
 42
0.0000000001
 43
0.0000000001
 40
0.0
 40
0.0
 40
0.0
 40
0.0
 40
1.0
 40
1.0
 40
1.0
 40
2.0
 40
2.0
 40
2.0
 40
3.0
 40
3.0
 40
3.0
 40
4.0
 40
4.0
 40
4.0
 40
5.0
 40
5.0
 40
5.0
 40
6.0
 40
6.0
 40
6.0
 40
7.0
 40
7.0
 40
7.0
 40
8.0
 40
8.0
 40
8.0
 40
9.0
 40
9.0
 40
9.0
 40
10.0
 40
10.0
 40
10.0
 40
11.0
 40
11.0
 40
11.0
 40
12.0
 40
12.0
 40
12.0
 40
13.0
 40
13.0
 40
13.0
 40
14.0
 40
14.0
 40
14.0
 40
15.0
 40
15.0
 40
15.0
 40
16.0
 40
16.0
 40
16.0
 40
17.0
 40
17.0
 40
17.0
 40
18.0
 40
18.0
 40
18.0
 40
19.0
 40
19.0
 40
19.0
 40
20.0
 40
20.0
 40
20.0
 40
21.0
 40
21.0
 40
21.0
 40
22.0
 40
22.0
 40
22.0
 40
23.0
 40
23.0
 40
23.0
 40
24.0
 40
24.0
 40
24.0
 40
25.0
 40
25.0
 40
25.0
 40
26.0
 40
26.0
 40
26.0
 40
27.0
 40
27.0
 40
27.0
 40
28.0
 40
28.0
 40
28.0
 40
29.0
 40
29.0
 40
29.0
 40
30.0
 40
30.0
 40
30.0
 40
31.0
 40
31.0
 40
31.0
 40
32.0
 40
32.0
 40
32.0
 40
33.0
 40
33.0
 40
33.0
 40
34.0
 40
34.0
 40
34.0
 40
35.0
 40
35.0
 40
35.0
 40
36.0
 40
36.0
 40
36.0
 40
37.0
 40
37.0
 40
37.0
 40
38.0
 40
38.0
 40
38.0
 40
39.0
 40
39.0
 40
39.0
 40
40.0
 40
40.0
 40
40.0
 40
41.0
 40
41.0
 40
41.0
 40
42.0
 40
42.0
 40
42.0
 40
43.0
 40
43.0
 40
43.0
 40
44.0
 40
44.0
 40
44.0
 40
45.0
 40
45.0
 40
45.0
 40
46.0
 40
46.0
 40
46.0
 40
47.0
 40
47.0
 40
47.0
 40
48.0
 40
48.0
 40
48.0
 40
49.0
 40
49.0
 40
49.0
 40
50.0
 40
50.0
 40
50.0
 40
51.0
 40
51.0
 40
51.0
 40
52.0
 40
52.0
 40
52.0
 40
53.0
 40
53.0
 40
53.0
 40
54.0
 40
54.0
 40
54.0
 40
55.0
 40
55.0
 40
55.0
 40
56.0
 40
56.0
 40
56.0
 40
57.0
 40
57.0
 40
57.0
 40
58.0
 40
58.0
 40
58.0
 40
59.0
 40
59.0
 40
59.0
 40
60.0
 40
60.0
 40
60.0
 40
61.0
 40
61.0
 40
61.0
 40
61.0
 10
728.4832797608278
 20
591.8919541742853
 30
0.0
 10
727.4670749996803
 20
600.1328503497061
 30
0.0
 10
726.7229429651079
 20
606.776741415435
 30
0.0
 10
725.8145506853233
 20
613.3980902255107
 30
0.0
 10
724.2587187344361
 20
624.7387220684077
 30
0.0
 10
722.1604509435811
 20
636.0233569336533
 30
0.0
 10
721.0758158618973
 20
647.4063718801025
 30
0.0
 10
718.7895440463071
 20
671.40031369408
 30
0.0
 10
723.9156207387423
 20
694.0458638536529
 30
0.0
 10
733.8837112081501
 20
715.9126759953269
 30
0.0
 10
743.5316689768106
 20
737.0772251411136
 30
0.0
 10
759.237847129415
 20
751.768369522304
 30
0.0
 10
779.7034052110721
 20
762.0594624822952
 30
0.0
 10
796.4683910747726
 20
770.4897281042822
 30
0.0
 10
813.9825233295677
 20
776.6779359425018
 30
0.0
 10
832.2835355807164
 20
780.7228419096055
 30
0.0
 10
836.2784589220419
 20
781.6057997044226
 30
0.0
 10
837.0995006532503
 20
780.7323884098841
 30
0.0
 10
836.2566460895532
 20
776.4996602007959
 30
0.0
 10
836.0321830372477
 20
775.3724272283961
 30
0.0
 10
836.0087063847858
 20
774.1828539303378
 30
0.0
 10
836.0521488769228
 20
773.0278914652235
 30
0.0
 10
837.0253156526242
 20
747.1587720384432
 30
0.0
 10
834.2404931569017
 20
721.4857412376813
 30
0.0
 10
832.0498375643401
 20
695.7815107035967
 30
0.0
 10
831.7004811632441
 20
691.6822083810902
 30
0.0
 10
831.370418968072
 20
687.5812577419901
 30
0.0
 10
831.0286489754762
 20
683.4812991452845
 30
0.0
 10
830.5642142369888
 20
677.9095617135189
 30
0.0
 10
827.6634280684765
 20
674.7958535104644
 30
0.0
 10
822.2009849822562
 20
674.0753407500578
 30
0.0
 10
809.3772833462608
 20
672.3838855732647
 30
0.0
 10
796.5408817266188
 20
670.7826375745607
 30
0.0
 10
783.7378480928555
 20
668.9479162137359
 30
0.0
 10
782.1189817880413
 20
668.7159309152084
 30
0.0
 10
779.5730166770499
 20
667.4771904698346
 30
0.0
 10
779.4016432198422
 20
666.3965205334643
 30
0.0
 10
779.1528029152742
 20
664.8273689217858
 30
0.0
 10
780.2076037204715
 20
662.4149812743417
 30
0.0
 10
781.5119469927958
 20
661.3329682651901
 30
0.0
 10
797.5469890849035
 20
648.030915985435
 30
0.0
 10
813.4788590742891
 20
634.5825298213185
 30
0.0
 10
829.9558819674521
 20
621.8423703541011
 30
0.0
 10
842.0921969885931
 20
612.4584887177116
 30
0.0
 10
854.9975937116979
 20
604.0699155851498
 30
0.0
 10
867.5444143340401
 20
595.2153419841706
 30
0.0
 10
870.7326597477768
 20
592.9653287835044
 30
0.0
 10
873.8195647872016
 20
593.1455752555848
 30
0.0
 10
876.869621556767
 20
595.4149561762387
 30
0.0
 10
891.3040535705532
 20
606.1547918825208
 30
0.0
 10
905.7679611473449
 20
616.8555411184398
 30
0.0
 10
920.1506315691295
 20
627.6643161400807
 30
0.0
 10
930.8783321781774
 20
635.7262936540128
 30
0.0
 10
941.5297412989275
 20
643.8908941381614
 30
0.0
 10
952.1507742568719
 20
652.0930853979852
 30
0.0
 10
956.5628279504817
 20
655.5003236835355
 30
0.0
 10
960.889095696868
 20
659.0301936713004
 30
0.0
 10
965.1013078208926
 20
662.6808333740163
 30
0.0
 10
968.2362499378815
 20
665.3978085611124
 30
0.0
 10
967.6067459408004
 20
668.1320758102629
 30
0.0
 10
963.4954315233882
 20
669.1605948410369
 30
0.0
 10
959.7199645100463
 20
670.1050878809528
 30
0.0
 10
955.8134983865457
 20
670.6402108110169
 30
0.0
 10
951.9319742982334
 20
671.0249782694727
 30
0.0
 10
940.8084982372857
 20
672.127671547013
 30
0.0
 10
929.6776952626968
 20
673.1913546651431
 30
0.0
 10
918.5300098579228
 20
673.9966870503231
 30
0.0
 10
914.3741539113289
 20
674.2969096034376
 30
0.0
 10
912.3426755176424
 20
676.8190629263426
 30
0.0
 10
912.2449222781343
 20
680.1773172108651
 30
0.0
 10
911.8946347484307
 20
692.2079679571643
 30
0.0
 10
912.0427605192272
 20
704.2532169888618
 30
0.0
 10
912.0116821938626
 20
716.2929716319094
 30
0.0
 10
912.0065228255061
 20
718.2925017589277
 30
0.0
 10
912.1266231516219
 20
720.2949927509408
 30
0.0
 10
912.054972041964
 20
722.2913025557227
 30
0.0
 10
911.3742101781936
 20
741.2616218078264
 30
0.0
 10
914.0882821640607
 20
760.4093563956357
 30
0.0
 10
909.1032332948325
 20
779.1607948476949
 30
0.0
 10
908.9008883630832
 20
779.9218745109628
 30
0.0
 10
909.0773753954364
 20
780.7836293073606
 30
0.0
 10
909.0773753954364
 20
781.887652303265
 30
0.0
 10
918.7407502115529
 20
782.2294442943912
 30
0.0
 10
927.2622865941649
 20
778.9088160793608
 30
0.0
 10
935.9639124083368
 20
776.1653819769253
 30
0.0
 10
951.0576903278925
 20
771.4066404578425
 30
0.0
 10
964.756271245964
 20
763.8335318973068
 30
0.0
 10
977.6716966821149
 20
755.0142292190176
 30
0.0
 10
990.1476904725841
 20
746.4950041030315
 30
0.0
 10
1000.269211092978
 20
735.4716503113477
 30
0.0
 10
1008.094110632262
 20
722.3679569084761
 30
0.0
 10
1016.725459133086
 20
707.9137465911462
 30
0.0
 10
1019.336252165405
 20
692.106741477396
 30
0.0
 10
1019.023331895274
 20
675.6877911967303
 30
0.0
 10
1018.82239128864
 20
665.1434641532205
 30
0.0
 10
1018.023147125517
 20
654.5974430065435
 30
0.0
 10
1017.132591301129
 20
644.082602515451
 30
0.0
 10
1015.977320192614
 20
630.4417906510825
 30
0.0
 10
1014.448468074775
 20
616.8328004543082
 30
0.0
 10
1013.126876026585
 20
603.2056177262274
 30
0.0
 10
1012.970293776292
 20
601.5910610972396
 30
0.0
 10
1013.105627977023
 20
599.9481931045165
 30
0.0
 10
1013.105627977023
 20
597.2037764985552
 30
0.0
 10
1015.199690424735
 20
598.544712572806
 30
0.0
 10
1016.575684806717
 20
599.2274361490581
 30
0.0
 10
1017.716943192892
 20
600.1887557542131
 30
0.0
 10
1025.314281005976
 20
606.5882686225722
 30
0.0
 10
1038.541313973564
 20
606.2266615384924
 30
0.0
 10
1043.95242287108
 20
593.8264521067631
 30
0.0
 10
1050.75729391616
 20
578.2322477178386
 30
0.0
 10
1050.511018031366
 20
562.0344542114053
 30
0.0
 10
1049.984487699763
 20
545.7340835213253
 30
0.0
 10
1049.76651201891
 20
538.986348510125
 30
0.0
 10
1044.013846830446
 20
535.3296802420845
 30
0.0
 10
1039.656928161992
 20
531.1795853489548
 30
0.0
 10
1033.807364540611
 20
525.6076342465203
 30
0.0
 10
1027.759485789986
 20
520.2234996627485
 30
0.0
 10
1021.541531056444
 20
515.0663749033392
 30
0.0
 10
1017.917822741912
 20
512.0609137877709
 30
0.0
 10
1013.807515775128
 20
509.6388346492386
 30
0.0
 10
1009.894028026052
 20
506.9869069188735
 30
0.0
 10
1006.820479339622
 20
504.904167328199
 30
0.0
 10
1003.795990445786
 20
504.4256671256043
 30
0.0
 10
1000.235934693521
 20
506.3111276393865
 30
0.0
 10
996.8618604325365
 20
508.0981470232018
 30
0.0
 10
995.7628233862251
 20
505.6724354832822
 30
0.0
 10
994.9597631222459
 20
502.7199952181818
 30
0.0
 10
992.5067124348789
 20
493.7012614941123
 30
0.0
 10
989.0494777040567
 20
485.0070019441682
 30
0.0
 10
982.9539434859507
 20
477.8532163495892
 30
0.0
 10
977.6771308097341
 20
471.6603688053983
 30
0.0
 10
971.8811452443606
 20
465.8420859451853
 30
0.0
 10
965.837113123398
 20
460.3871347966014
 30
0.0
 10
957.7909407921215
 20
453.1252013187749
 30
0.0
 10
949.5118336646427
 20
446.0765722180695
 30
0.0
 10
940.9166312711205
 20
439.4782693159395
 30
0.0
 10
928.7385375778157
 20
430.1295059803342
 30
0.0
 10
916.4161036857622
 20
420.9219789573962
 30
0.0
 10
903.6484682035334
 20
412.4146812434373
 30
0.0
 10
899.5751010930272
 20
409.7005142994276
 30
0.0
 10
893.96543283581
 20
408.770344825476
 30
0.0
 10
888.922073945514
 20
408.1682819270354
 30
0.0
 10
883.0051332474322
 20
407.4618866930195
 30
0.0
 10
876.8834511062669
 20
408.5277370422281
 30
0.0
 10
870.9491700459002
 20
407.8972254203344
 30
0.0
 10
857.2195260668687
 20
406.4385568070811
 30
0.0
 10
846.1422095618654
 20
412.6292371201925
 30
0.0
 10
835.2155832474345
 20
419.4177374427344
 30
0.0
 10
822.4689363199086
 20
427.3370134736905
 30
0.0
 10
809.6768319989942
 20
435.1983847531592
 30
0.0
 10
797.1794069861226
 20
443.4987271613263
 30
0.0
 10
786.5762333801821
 20
450.5410071907045
 30
0.0
 10
775.9205349620715
 20
457.6308136818989
 30
0.0
 10
766.0949605952037
 20
465.6837865033231
 30
0.0
 10
754.6176632951583
 20
475.0905156391781
 30
0.0
 10
747.7555507372499
 20
487.7024879667697
 30
0.0
 10
745.0688325623141
 20
502.4011985789948
 30
0.0
 10
744.422293491014
 20
505.9383333695295
 30
0.0
 10
743.3250271154993
 20
507.3141282873221
 30
0.0
 10
739.1157533891337
 20
506.4085614647683
 30
0.0
 10
735.8809668093672
 20
505.712605569186
 30
0.0
 10
731.7216992686089
 20
506.4005335524634
 30
0.0
 10
728.7413779260714
 20
507.949737480907
 30
0.0
 10
717.2450230183557
 20
513.925770344118
 30
0.0
 10
706.2899743847546
 20
520.6521535505417
 30
0.0
 10
698.0927760460327
 20
531.2241509457762
 30
0.0
 10
693.5266205676843
 20
537.1131893220408
 30
0.0
 10
693.7928775565569
 20
543.9162650366943
 30
0.0
 10
693.1821564078846
 20
550.396545418198
 30
0.0
 10
692.1575104316453
 20
561.2689485128357
 30
0.0
 10
692.1216009225973
 20
572.2535439712555
 30
0.0
 10
692.1360524965357
 20
583.1903229862364
 30
0.0
 10
692.1393267110698
 20
585.6713141808431
 30
0.0
 10
693.3670045172121
 20
589.0761715646458
 30
0.0
 10
695.2208892092967
 20
590.4458463439714
 30
0.0
 10
699.7507650168135
 20
593.7925853056149
 30
0.0
 10
704.7338218813965
 20
596.9459828355666
 30
0.0
 10
710.0259065932369
 20
598.6625824715256
 30
0.0
 10
712.6321203045308
 20
599.5079704761792
 30
0.0
 10
716.3766005789284
 20
597.1254967224922
 30
0.0
 10
719.5159312119021
 20
595.9608999995034
 30
0.0
 10
722.1356310236187
 20
594.9890494827704
 30
0.0
 10
724.6240722303173
 20
593.6634366479738
 30
0.0
 10
728.4832797608278
 20
591.8919541742853
 30
0.0
  0
HATCH
  5
86
330
7D
100
AcDbEntity
  8
Layer 1
 62
    18
420
        0
440
 33554687
100
AcDbHatch
 10
0.0
 20
0.0
 30
0.0
210
0.0
220
0.0
230
1.0
  2
SOLID
 70
     1
 71
     1
 91
        3
 92
        1
 93
        1
 72
     4
 94
        3
 73
     0
 74
     0
 95
       35
 96
       31
 40
0.0
 40
0.0
 40
0.0
 40
0.0
 40
1.0
 40
1.0
 40
1.0
 40
2.0
 40
2.0
 40
2.0
 40
3.0
 40
3.0
 40
3.0
 40
4.0
 40
4.0
 40
4.0
 40
5.0
 40
5.0
 40
5.0
 40
6.0
 40
6.0
 40
6.0
 40
7.0
 40
7.0
 40
7.0
 40
8.0
 40
8.0
 40
8.0
 40
9.0
 40
9.0
 40
9.0
 40
10.0
 40
10.0
 40
10.0
 40
10.0
 10
809.4599095619788
 20
547.8747278634873
 10
819.1426091128251
 20
547.4299571023238
 10
827.4289057743162
 20
551.1872489935995
 10
835.2446772003549
 20
556.1768254235866
 10
836.5470818934445
 20
557.0082790481373
 10
837.8480669970159
 20
558.949171838516
 10
837.9068502145901
 20
560.4268113548005
 10
838.1454633688672
 20
566.4265616623488
 10
836.5721613082651
 20
571.7213666439966
 10
830.9084112697291
 20
575.1053606131208
 10
826.5737175726552
 20
577.6952475383204
 10
822.4025819582376
 20
580.5636541814674
 10
818.2062448137711
 20
583.3790552363407
 10
811.088880901857
 20
588.1541978870955
 10
803.5096161424226
 20
591.8053565042955
 10
794.9334942531777
 20
593.0152971958323
 10
792.2019292609903
 20
593.4006827730118
 10
788.7161500957717
 20
594.7533554719048
 10
786.816281388381
 20
593.6072259996544
 10
779.3532397965946
 20
589.1049255319103
 10
772.3444668506171
 20
583.8390424016251
 10
765.2503964183233
 20
578.7406923385715
 10
761.7323940974829
 20
576.2123730906278
 10
762.5650215108881
 20
572.9911503852381
 10
764.6039641978477
 20
570.0574368281177
 10
766.2840712891866
 20
567.6400126577446
 10
768.2193839413202
 20
565.3462427563645
 10
770.3245741391274
 20
563.2868543174481
 10
781.2024612134345
 20
552.6456886739943
 10
794.7972441882421
 20
548.8606653822298
 10
809.4599095619788
 20
547.8747278634873
 97
        0
 97
        1
330
83
 92
        1
 93
        1
 72
     4
 94
        3
 73
     0
 74
     0
 95
       32
 96
       28
 40
0.0
 40
0.0
 40
0.0
 40
0.0
 40
1.0
 40
1.0
 40
1.0
 40
2.0
 40
2.0
 40
2.0
 40
3.0
 40
3.0
 40
3.0
 40
4.0
 40
4.0
 40
4.0
 40
5.0
 40
5.0
 40
5.0
 40
6.0
 40
6.0
 40
6.0
 40
7.0
 40
7.0
 40
7.0
 40
8.0
 40
8.0
 40
8.0
 40
9.0
 40
9.0
 40
9.0
 40
9.0
 10
939.0301647099331
 20
543.8562846272725
 10
941.7842904903773
 20
544.052373253291
 10
943.8802762529212
 20
543.8251955448304
 10
945.7313599269783
 20
544.3943684223304
 10
957.9066449700532
 20
548.138214323606
 10
967.6161182845007
 20
555.8083045671228
 10
976.1141474858449
 20
564.8817532448247
 10
978.6447413425904
 20
567.5837256984705
 10
982.1467618330498
 20
571.6099068653675
 10
978.4093031842239
 20
576.1532931504571
 10
972.7907815730249
 20
582.9833371560635
 10
965.2339554866193
 20
587.3883564203315
 10
956.9639154147717
 20
589.3257541690418
 10
949.8525351489988
 20
590.9916833319003
 10
942.1369287382095
 20
593.9306776070025
 10
934.7916978120265
 20
589.0971876012281
 10
932.7738657949977
 20
587.769361748782
 10
930.3272566858741
 20
587.0732379691016
 10
928.3689863709932
 20
585.6780448069384
 10
919.8817033096585
 20
579.6310427570061
 10
909.5308197634604
 20
575.7665645004963
 10
905.6022813126128
 20
564.4820822571582
 10
904.3411057731645
 20
560.8594334121735
 10
904.7008877617972
 20
558.8717772695126
 10
907.13910144904
 20
556.417189664804
 10
916.169827800968
 20
547.3258536996109
 10
927.8766177742472
 20
545.4344561936486
 10
939.0301647099331
 20
543.8562846272725
 97
        0
 97
        1
330
84
 92
        1
 93
        1
 72
     4
 94
        3
 73
     0
 74
     0
 95
      188
 96
      184
 40
0.0
 40
0.0
 40
0.0
 40
0.0
 40
1.0
 40
1.0
 40
1.0
 40
2.0
 40
2.0
 40
2.0
 40
3.0
 40
3.0
 40
3.0
 40
4.0
 40
4.0
 40
4.0
 40
5.0
 40
5.0
 40
5.0
 40
6.0
 40
6.0
 40
6.0
 40
7.0
 40
7.0
 40
7.0
 40
8.0
 40
8.0
 40
8.0
 40
9.0
 40
9.0
 40
9.0
 40
10.0
 40
10.0
 40
10.0
 40
11.0
 40
11.0
 40
11.0
 40
12.0
 40
12.0
 40
12.0
 40
13.0
 40
13.0
 40
13.0
 40
14.0
 40
14.0
 40
14.0
 40
15.0
 40
15.0
 40
15.0
 40
16.0
 40
16.0
 40
16.0
 40
17.0
 40
17.0
 40
17.0
 40
18.0
 40
18.0
 40
18.0
 40
19.0
 40
19.0
 40
19.0
 40
20.0
 40
20.0
 40
20.0
 40
21.0
 40
21.0
 40
21.0
 40
22.0
 40
22.0
 40
22.0
 40
23.0
 40
23.0
 40
23.0
 40
24.0
 40
24.0
 40
24.0
 40
25.0
 40
25.0
 40
25.0
 40
26.0
 40
26.0
 40
26.0
 40
27.0
 40
27.0
 40
27.0
 40
28.0
 40
28.0
 40
28.0
 40
29.0
 40
29.0
 40
29.0
 40
30.0
 40
30.0
 40
30.0
 40
31.0
 40
31.0
 40
31.0
 40
32.0
 40
32.0
 40
32.0
 40
33.0
 40
33.0
 40
33.0
 40
34.0
 40
34.0
 40
34.0
 40
35.0
 40
35.0
 40
35.0
 40
36.0
 40
36.0
 40
36.0
 40
37.0
 40
37.0
 40
37.0
 40
38.0
 40
38.0
 40
38.0
 40
39.0
 40
39.0
 40
39.0
 40
40.0
 40
40.0
 40
40.0
 40
41.0
 40
41.0
 40
41.0
 40
42.0
 40
42.0
 40
42.0
 40
43.0
 40
43.0
 40
43.0
 40
44.0
 40
44.0
 40
44.0
 40
45.0
 40
45.0
 40
45.0
 40
46.0
 40
46.0
 40
46.0
 40
47.0
 40
47.0
 40
47.0
 40
48.0
 40
48.0
 40
48.0
 40
49.0
 40
49.0
 40
49.0
 40
50.0
 40
50.0
 40
50.0
 40
51.0
 40
51.0
 40
51.0
 40
52.0
 40
52.0
 40
52.0
 40
53.0
 40
53.0
 40
53.0
 40
54.0
 40
54.0
 40
54.0
 40
55.0
 40
55.0
 40
55.0
 40
56.0
 40
56.0
 40
56.0
 40
57.0
 40
57.0
 40
57.0
 40
58.0
 40
58.0
 40
58.0
 40
59.0
 40
59.0
 40
59.0
 40
60.0
 40
60.0
 40
60.0
 40
61.0
 40
61.0
 40
61.0
 40
61.0
 10
728.4832797608278
 20
591.8919541742853
 10
727.4670749996803
 20
600.1328503497061
 10
726.7229429651079
 20
606.776741415435
 10
725.8145506853233
 20
613.3980902255107
 10
724.2587187344361
 20
624.7387220684077
 10
722.1604509435811
 20
636.0233569336533
 10
721.0758158618973
 20
647.4063718801025
 10
718.7895440463071
 20
671.40031369408
 10
723.9156207387423
 20
694.0458638536529
 10
733.8837112081501
 20
715.9126759953269
 10
743.5316689768106
 20
737.0772251411136
 10
759.237847129415
 20
751.768369522304
 10
779.7034052110721
 20
762.0594624822952
 10
796.4683910747726
 20
770.4897281042822
 10
813.9825233295677
 20
776.6779359425018
 10
832.2835355807164
 20
780.7228419096055
 10
836.2784589220419
 20
781.6057997044226
 10
837.0995006532503
 20
780.7323884098841
 10
836.2566460895532
 20
776.4996602007959
 10
836.0321830372477
 20
775.3724272283961
 10
836.0087063847858
 20
774.1828539303378
 10
836.0521488769228
 20
773.0278914652235
 10
837.0253156526242
 20
747.1587720384432
 10
834.2404931569017
 20
721.4857412376813
 10
832.0498375643401
 20
695.7815107035967
 10
831.7004811632441
 20
691.6822083810902
 10
831.370418968072
 20
687.5812577419901
 10
831.0286489754762
 20
683.4812991452845
 10
830.5642142369888
 20
677.9095617135189
 10
827.6634280684765
 20
674.7958535104644
 10
822.2009849822562
 20
674.0753407500578
 10
809.3772833462608
 20
672.3838855732647
 10
796.5408817266188
 20
670.7826375745607
 10
783.7378480928555
 20
668.9479162137359
 10
782.1189817880413
 20
668.7159309152084
 10
779.5730166770499
 20
667.4771904698346
 10
779.4016432198422
 20
666.3965205334643
 10
779.1528029152742
 20
664.8273689217858
 10
780.2076037204715
 20
662.4149812743417
 10
781.5119469927958
 20
661.3329682651901
 10
797.5469890849035
 20
648.030915985435
 10
813.4788590742891
 20
634.5825298213185
 10
829.9558819674521
 20
621.8423703541011
 10
842.0921969885931
 20
612.4584887177116
 10
854.9975937116979
 20
604.0699155851498
 10
867.5444143340401
 20
595.2153419841706
 10
870.7326597477768
 20
592.9653287835044
 10
873.8195647872016
 20
593.1455752555848
 10
876.869621556767
 20
595.4149561762387
 10
891.3040535705532
 20
606.1547918825208
 10
905.7679611473449
 20
616.8555411184398
 10
920.1506315691295
 20
627.6643161400807
 10
930.8783321781774
 20
635.7262936540128
 10
941.5297412989275
 20
643.8908941381614
 10
952.1507742568719
 20
652.0930853979852
 10
956.5628279504817
 20
655.5003236835355
 10
960.889095696868
 20
659.0301936713004
 10
965.1013078208926
 20
662.6808333740163
 10
968.2362499378815
 20
665.3978085611124
 10
967.6067459408004
 20
668.1320758102629
 10
963.4954315233882
 20
669.1605948410369
 10
959.7199645100463
 20
670.1050878809528
 10
955.8134983865457
 20
670.6402108110169
 10
951.9319742982334
 20
671.0249782694727
 10
940.8084982372857
 20
672.127671547013
 10
929.6776952626968
 20
673.1913546651431
 10
918.5300098579228
 20
673.9966870503231
 10
914.3741539113289
 20
674.2969096034376
 10
912.3426755176424
 20
676.8190629263426
 10
912.2449222781343
 20
680.1773172108651
 10
911.8946347484307
 20
692.2079679571643
 10
912.0427605192272
 20
704.2532169888618
 10
912.0116821938626
 20
716.2929716319094
 10
912.0065228255061
 20
718.2925017589277
 10
912.1266231516219
 20
720.2949927509408
 10
912.054972041964
 20
722.2913025557227
 10
911.3742101781936
 20
741.2616218078264
 10
914.0882821640607
 20
760.4093563956357
 10
909.1032332948325
 20
779.1607948476949
 10
908.9008883630832
 20
779.9218745109628
 10
909.0773753954364
 20
780.7836293073606
 10
909.0773753954364
 20
781.887652303265
 10
918.7407502115529
 20
782.2294442943912
 10
927.2622865941649
 20
778.9088160793608
 10
935.9639124083368
 20
776.1653819769253
 10
951.0576903278925
 20
771.4066404578425
 10
964.756271245964
 20
763.8335318973068
 10
977.6716966821149
 20
755.0142292190176
 10
990.1476904725841
 20
746.4950041030315
 10
1000.269211092978
 20
735.4716503113477
 10
1008.094110632262
 20
722.3679569084761
 10
1016.725459133086
 20
707.9137465911462
 10
1019.336252165405
 20
692.106741477396
 10
1019.023331895274
 20
675.6877911967303
 10
1018.82239128864
 20
665.1434641532205
 10
1018.023147125517
 20
654.5974430065435
 10
1017.132591301129
 20
644.082602515451
 10
1015.977320192614
 20
630.4417906510825
 10
1014.448468074775
 20
616.8328004543082
 10
1013.126876026585
 20
603.2056177262274
 10
1012.970293776292
 20
601.5910610972396
 10
1013.105627977023
 20
599.9481931045165
 10
1013.105627977023
 20
597.2037764985552
 10
1015.199690424735
 20
598.544712572806
 10
1016.575684806717
 20
599.2274361490581
 10
1017.716943192892
 20
600.1887557542131
 10
1025.314281005976
 20
606.5882686225722
 10
1038.541313973564
 20
606.2266615384924
 10
1043.95242287108
 20
593.8264521067631
 10
1050.75729391616
 20
578.2322477178386
 10
1050.511018031366
 20
562.0344542114053
 10
1049.984487699763
 20
545.7340835213253
 10
1049.76651201891
 20
538.986348510125
 10
1044.013846830446
 20
535.3296802420845
 10
1039.656928161992
 20
531.1795853489548
 10
1033.807364540611
 20
525.6076342465203
 10
1027.759485789986
 20
520.2234996627485
 10
1021.541531056444
 20
515.0663749033392
 10
1017.917822741912
 20
512.0609137877709
 10
1013.807515775128
 20
509.6388346492386
 10
1009.894028026052
 20
506.9869069188735
 10
1006.820479339622
 20
504.904167328199
 10
1003.795990445786
 20
504.4256671256043
 10
1000.235934693521
 20
506.3111276393865
 10
996.8618604325365
 20
508.0981470232018
 10
995.7628233862251
 20
505.6724354832822
 10
994.9597631222459
 20
502.7199952181818
 10
992.5067124348789
 20
493.7012614941123
 10
989.0494777040567
 20
485.0070019441682
 10
982.9539434859507
 20
477.8532163495892
 10
977.6771308097341
 20
471.6603688053983
 10
971.8811452443606
 20
465.8420859451853
 10
965.837113123398
 20
460.3871347966014
 10
957.7909407921215
 20
453.1252013187749
 10
949.5118336646427
 20
446.0765722180695
 10
940.9166312711205
 20
439.4782693159395
 10
928.7385375778157
 20
430.1295059803342
 10
916.4161036857622
 20
420.9219789573962
 10
903.6484682035334
 20
412.4146812434373
 10
899.5751010930272
 20
409.7005142994276
 10
893.96543283581
 20
408.770344825476
 10
888.922073945514
 20
408.1682819270354
 10
883.0051332474322
 20
407.4618866930195
 10
876.8834511062669
 20
408.5277370422281
 10
870.9491700459002
 20
407.8972254203344
 10
857.2195260668687
 20
406.4385568070811
 10
846.1422095618654
 20
412.6292371201925
 10
835.2155832474345
 20
419.4177374427344
 10
822.4689363199086
 20
427.3370134736905
 10
809.6768319989942
 20
435.1983847531592
 10
797.1794069861226
 20
443.4987271613263
 10
786.5762333801821
 20
450.5410071907045
 10
775.9205349620715
 20
457.6308136818989
 10
766.0949605952037
 20
465.6837865033231
 10
754.6176632951583
 20
475.0905156391781
 10
747.7555507372499
 20
487.7024879667697
 10
745.0688325623141
 20
502.4011985789948
 10
744.422293491014
 20
505.9383333695295
 10
743.3250271154993
 20
507.3141282873221
 10
739.1157533891337
 20
506.4085614647683
 10
735.8809668093672
 20
505.712605569186
 10
731.7216992686089
 20
506.4005335524634
 10
728.7413779260714
 20
507.949737480907
 10
717.2450230183557
 20
513.925770344118
 10
706.2899743847546
 20
520.6521535505417
 10
698.0927760460327
 20
531.2241509457762
 10
693.5266205676843
 20
537.1131893220408
 10
693.7928775565569
 20
543.9162650366943
 10
693.1821564078846
 20
550.396545418198
 10
692.1575104316453
 20
561.2689485128357
 10
692.1216009225973
 20
572.2535439712555
 10
692.1360524965357
 20
583.1903229862364
 10
692.1393267110698
 20
585.6713141808431
 10
693.3670045172121
 20
589.0761715646458
 10
695.2208892092967
 20
590.4458463439714
 10
699.7507650168135
 20
593.7925853056149
 10
704.7338218813965
 20
596.9459828355666
 10
710.0259065932369
 20
598.6625824715256
 10
712.6321203045308
 20
599.5079704761792
 10
716.3766005789284
 20
597.1254967224922
 10
719.5159312119021
 20
595.9608999995034
 10
722.1356310236187
 20
594.9890494827704
 10
724.6240722303173
 20
593.6634366479738
 10
728.4832797608278
 20
591.8919541742853
 97
        0
 97
        1
330
85
 75
     2
 76
     1
 98
        1
 10
0.0
 20
0.0
450
        0
451
        0
460
0.0
461
0.0
452
        0
462
0.0
453
        0
470

  0
SPLINE
  5
87
330
7D
100
AcDbEntity
  8
Layer 1
100
AcDbSpline
210
0.0
220
0.0
230
1.0
 70
     9
 71
     3
 72
    32
 73
    28
 74
     0
 42
0.0000000001
 43
0.0000000001
 40
0.0
 40
0.0
 40
0.0
 40
0.0
 40
1.0
 40
1.0
 40
1.0
 40
2.0
 40
2.0
 40
2.0
 40
3.0
 40
3.0
 40
3.0
 40
4.0
 40
4.0
 40
4.0
 40
5.0
 40
5.0
 40
5.0
 40
6.0
 40
6.0
 40
6.0
 40
7.0
 40
7.0
 40
7.0
 40
8.0
 40
8.0
 40
8.0
 40
9.0
 40
9.0
 40
9.0
 40
9.0
 10
939.0301647099331
 20
543.8562846272725
 30
0.0
 10
927.8766177742472
 20
545.4344561936486
 30
0.0
 10
916.169827800968
 20
547.3258536996109
 30
0.0
 10
907.13910144904
 20
556.417189664804
 30
0.0
 10
904.7008877617972
 20
558.8717772695126
 30
0.0
 10
904.3411057731645
 20
560.8594334121735
 30
0.0
 10
905.6022813126128
 20
564.4820822571582
 30
0.0
 10
909.5308197634604
 20
575.7665645004963
 30
0.0
 10
919.8817033096585
 20
579.6310427570061
 30
0.0
 10
928.3689863709932
 20
585.6780448069384
 30
0.0
 10
930.3272566858741
 20
587.0732379691016
 30
0.0
 10
932.7738657949977
 20
587.769361748782
 30
0.0
 10
934.7916978120265
 20
589.0971876012281
 30
0.0
 10
942.1369287382095
 20
593.9306776070025
 30
0.0
 10
949.8525351489988
 20
590.9916833319003
 30
0.0
 10
956.9639154147717
 20
589.3257541690418
 30
0.0
 10
965.2339554866193
 20
587.3883564203315
 30
0.0
 10
972.7907815730249
 20
582.9833371560635
 30
0.0
 10
978.4093031842239
 20
576.1532931504571
 30
0.0
 10
982.1467618330498
 20
571.6099068653675
 30
0.0
 10
978.6447413425904
 20
567.5837256984705
 30
0.0
 10
976.1141474858449
 20
564.8817532448247
 30
0.0
 10
967.6161182845007
 20
555.8083045671228
 30
0.0
 10
957.9066449700532
 20
548.138214323606
 30
0.0
 10
945.7313599269783
 20
544.3943684223304
 30
0.0
 10
943.8802762529212
 20
543.8251955448304
 30
0.0
 10
941.7842904903773
 20
544.052373253291
 30
0.0
 10
939.0301647099331
 20
543.8562846272725
 30
0.0
  0
SPLINE
  5
88
330
7D
100
AcDbEntity
  8
Layer 1
100
AcDbSpline
210
0.0
220
0.0
230
1.0
 70
     9
 71
     3
 72
    35
 73
    31
 74
     0
 42
0.0000000001
 43
0.0000000001
 40
0.0
 40
0.0
 40
0.0
 40
0.0
 40
1.0
 40
1.0
 40
1.0
 40
2.0
 40
2.0
 40
2.0
 40
3.0
 40
3.0
 40
3.0
 40
4.0
 40
4.0
 40
4.0
 40
5.0
 40
5.0
 40
5.0
 40
6.0
 40
6.0
 40
6.0
 40
7.0
 40
7.0
 40
7.0
 40
8.0
 40
8.0
 40
8.0
 40
9.0
 40
9.0
 40
9.0
 40
10.0
 40
10.0
 40
10.0
 40
10.0
 10
809.4599095619788
 20
547.8747278634873
 30
0.0
 10
794.7972441882421
 20
548.8606653822298
 30
0.0
 10
781.2024612134345
 20
552.6456886739943
 30
0.0
 10
770.3245741391274
 20
563.2868543174481
 30
0.0
 10
768.2193839413202
 20
565.3462427563645
 30
0.0
 10
766.2840712891866
 20
567.6400126577446
 30
0.0
 10
764.6039641978477
 20
570.0574368281177
 30
0.0
 10
762.5650215108881
 20
572.9911503852381
 30
0.0
 10
761.7323940974829
 20
576.2123730906278
 30
0.0
 10
765.2503964183233
 20
578.7406923385715
 30
0.0
 10
772.3444668506171
 20
583.8390424016251
 30
0.0
 10
779.3532397965946
 20
589.1049255319103
 30
0.0
 10
786.816281388381
 20
593.6072259996544
 30
0.0
 10
788.7161500957717
 20
594.7533554719048
 30
0.0
 10
792.2019292609903
 20
593.4006827730118
 30
0.0
 10
794.9334942531777
 20
593.0152971958323
 30
0.0
 10
803.5096161424226
 20
591.8053565042955
 30
0.0
 10
811.088880901857
 20
588.1541978870955
 30
0.0
 10
818.2062448137711
 20
583.3790552363407
 30
0.0
 10
822.4025819582376
 20
580.5636541814674
 30
0.0
 10
826.5737175726552
 20
577.6952475383204
 30
0.0
 10
830.9084112697291
 20
575.1053606131208
 30
0.0
 10
836.5721613082651
 20
571.7213666439966
 30
0.0
 10
838.1454633688672
 20
566.4265616623488
 30
0.0
 10
837.9068502145901
 20
560.4268113548005
 30
0.0
 10
837.8480669970159
 20
558.949171838516
 30
0.0
 10
836.5470818934445
 20
557.0082790481373
 30
0.0
 10
835.2446772003549
 20
556.1768254235866
 30
0.0
 10
827.4289057743162
 20
551.1872489935995
 30
0.0
 10
819.1426091128251
 20
547.4299571023238
 30
0.0
 10
809.4599095619788
 20
547.8747278634873
 30
0.0
  0
ENDBLK
  5
80
330
7D
100
AcDbEntity
  8
0
100
AcDbBlockEnd
  0
ENDSEC
  0
SECTION
  2
ENTITIES
  0
INSERT
  5
7A
330
70
100
AcDbEntity
  8
Layer 1
100
AcDbBlockReference
  2
Block_0
 10
0.0
 20
0.0
 30
0.0
  0
ENDSEC
  0
SECTION
  2
OBJECTS
  0
DICTIONARY
  5
C
330
0
100
AcDbDictionary
281
     1
  3
ACAD_COLOR
350
63
  3
ACAD_DETAILVIEWSTYLE
350
6A
  3
ACAD_GROUP
350
D
  3
ACAD_LAYOUT
350
62
  3
ACAD_MATERIAL
350
10
  3
ACAD_MLEADERSTYLE
350
66
  3
ACAD_MLINESTYLE
350
5F
  3
ACAD_PLOTSETTINGS
350
61
  3
ACAD_PLOTSTYLENAME
350
E
  3
ACAD_SCALELIST
350
42
  3
ACAD_SECTIONVIEWSTYLE
350
68
  3
ACAD_TABLESTYLE
350
64
  3
ACAD_VISUALSTYLE
350
29
  3
ACDB_RECOMPOSE_DATA
350
91
  3
AcDbVariableDictionary
350
89
  0
DICTIONARY
  5
63
102
{ACAD_REACTORS
330
C
102
}
330
C
100
AcDbDictionary
281
     1
  0
DICTIONARY
  5
6A
102
{ACAD_REACTORS
330
C
102
}
330
C
100
AcDbDictionary
281
     1
  3
Imperial24
350
6B
  0
DICTIONARY
  5
D
102
{ACAD_REACTORS
330
C
102
}
330
C
100
AcDbDictionary
281
     1
  0
DICTIONARY
  5
62
102
{ACAD_REACTORS
330
C
102
}
330
C
100
AcDbDictionary
281
     1
  3
Layout1
350
6F
  3
Layout2
350
77
  3
Model
350
73
  0
DICTIONARY
  5
10
102
{ACAD_REACTORS
330
C
102
}
330
C
100
AcDbDictionary
281
     1
  3
ByBlock
350
19
  3
ByLayer
350
11
  3
Global
350
21
  0
DICTIONARY
  5
66
102
{ACAD_REACTORS
330
C
102
}
330
C
100
AcDbDictionary
281
     1
  3
Standard
350
67
  0
DICTIONARY
  5
5F
102
{ACAD_REACTORS
330
C
102
}
330
C
100
AcDbDictionary
281
     1
  3
Standard
350
60
  0
DICTIONARY
  5
61
102
{ACAD_REACTORS
330
C
102
}
330
C
100
AcDbDictionary
281
     1
  0
ACDBDICTIONARYWDFLT
  5
E
102
{ACAD_REACTORS
330
C
102
}
330
C
100
AcDbDictionary
281
     1
  3
Normal
350
F
100
AcDbDictionaryWithDefault
340
F
  0
DICTIONARY
  5
42
102
{ACAD_REACTORS
330
C
102
}
330
C
100
AcDbDictionary
281
     1
  3
A0
350
43
  3
A1
350
44
  3
A2
350
45
  3
A3
350
46
  3
A4
350
47
  3
A5
350
48
  3
A6
350
49
  3
A7
350
4A
  3
A8
350
4B
  3
A9
350
4C
  3
B0
350
4D
  3
B1
350
4E
  3
B2
350
4F
  3
B3
350
50
  3
B4
350
51
  3
B5
350
52
  3
B6
350
53
  0
DICTIONARY
  5
68
102
{ACAD_REACTORS
330
C
102
}
330
C
100
AcDbDictionary
281
     1
  3
Imperial24
350
69
  0
DICTIONARY
  5
64
102
{ACAD_REACTORS
330
C
102
}
330
C
100
AcDbDictionary
281
     1
  3
Standard
350
65
  0
DICTIONARY
  5
29
102
{ACAD_REACTORS
330
C
102
}
330
C
100
AcDbDictionary
281
     1
  3
2dWireframe
350
2F
  3
Basic
350
2E
  3
Brighten
350
35
  3
ColorChange
350
39
  3
Conceptual
350
32
  3
Dim
350
34
  3
EdgeColorOff
350
41
  3
Facepattern
350
38
  3
Flat
350
2A
  3
FlatWithEdges
350
2B
  3
Gouraud
350
2C
  3
GouraudWithEdges
350
2D
  3
Hidden
350
31
  3
JitterOff
350
3F
  3
Linepattern
350
37
  3
OverhangOff
350
40
  3
Realistic
350
33
  3
Shaded
350
3E
  3
Shaded with edges
350
3D
  3
Shades of Gray
350
3A
  3
Sketchy
350
3B
  3
Thicken
350
36
  3
Wireframe
350
30
  3
X-Ray
350
3C
  0
XRECORD
  5
91
102
{ACAD_REACTORS
330
C
102
}
330
C
100
AcDbXrecord
280
     1
 90
        1
330
65
  0
DICTIONARY
  5
89
102
{ACAD_REACTORS
330
C
102
}
330
C
100
AcDbDictionary
281
     1
  3
CANNOSCALE
350
8E
  3
CMLEADERSTYLE
350
8B
  3
CTABLESTYLE
350
8A
  3
CVIEWDETAILSTYLE
350
8C
  3
CVIEWSECTIONSTYLE
350
8D
  0
ACDBDETAILVIEWSTYLE
  5
6B
102
{ACAD_REACTORS
330
6A
102
}
330
6A
100
AcDbModelDocViewStyle
 70
     0
  3
Imperial24
290
     1
300
Imperial24
 90
        0
100
AcDbDetailViewStyle
 70
     0
 71
     0
 90
        3
 71
     1
340
55
 62
   256
 40
0.24
340
0
 62
   256
 40
0.24
300

 40
0.36
280
     3
 71
     2
340
5D
 90
       25
 62
   256
 71
     3
340
55
 62
   256
 40
0.24
 90
        1
 40
0.75
 90
        1
300
%<\AcVar ViewType \f "%tc1">% %<\AcVar ViewDetailId>%\PSCALE %<\AcVar ViewScale \f "%sn">%
 71
     4
340
5D
 90
       25
 62
   256
340
5D
 90
       25
 62
   256
280
     0
  0
LAYOUT
  5
6F
102
{ACAD_REACTORS
330
62
102
}
330
62
100
AcDbPlotSettings
  1

  2

  4

  6

 40
0.0
 41
0.0
 42
0.0
 43
0.0
 44
0.0
 45
0.0
 46
0.0
 47
0.0
 48
0.0
 49
0.0
140
0.0
141
0.0
142
1.0
143
1.0
 70
   688
 72
     0
 73
     0
 74
     5
  7

 75
    16
147
1.0
 76
     0
 77
     2
 78
   300
148
0.0
149
0.0
100
AcDbLayout
  1
Layout1
 70
     1
 71
     1
 10
0.0
 20
0.0
 11
12.0
 21
9.0
 12
0.0
 22
0.0
 32
0.0
 14
0.0
 24
0.0
 34
0.0
 15
0.0
 25
0.0
 35
0.0
146
0.0
 13
0.0
 23
0.0
 33
0.0
 16
1.0
 26
0.0
 36
0.0
 17
0.0
 27
1.0
 37
0.0
 76
     0
330
6C
  0
LAYOUT
  5
77
102
{ACAD_REACTORS
330
62
102
}
330
62
100
AcDbPlotSettings
  1

  2

  4

  6

 40
0.0
 41
0.0
 42
0.0
 43
0.0
 44
0.0
 45
0.0
 46
0.0
 47
0.0
 48
0.0
 49
0.0
140
0.0
141
0.0
142
1.0
143
1.0
 70
   688
 72
     0
 73
     0
 74
     5
  7

 75
    16
147
1.0
 76
     0
 77
     2
 78
   300
148
0.0
149
0.0
100
AcDbLayout
  1
Layout2
 70
     1
 71
     2
 10
0.0
 20
0.0
 11
12.0
 21
9.0
 12
0.0
 22
0.0
 32
0.0
 14
0.0
 24
0.0
 34
0.0
 15
0.0
 25
0.0
 35
0.0
146
0.0
 13
0.0
 23
0.0
 33
0.0
 16
1.0
 26
0.0
 36
0.0
 17
0.0
 27
1.0
 37
0.0
 76
     0
330
74
  0
LAYOUT
  5
73
102
{ACAD_REACTORS
330
62
102
}
330
62
100
AcDbPlotSettings
  1

  2

  4

  6

 40
0.0
 41
0.0
 42
0.0
 43
0.0
 44
0.0
 45
0.0
 46
0.0
 47
0.0
 48
0.0
 49
0.0
140
0.0
141
0.0
142
1.0
143
1.0
 70
  1712
 72
     0
 73
     0
 74
     0
  7

 75
     0
147
1.0
 76
     0
 77
     2
 78
   300
148
0.0
149
0.0
100
AcDbLayout
  1
Model
 70
     1
 71
     0
 10
0.0
 20
0.0
 11
12.0
 21
9.0
 12
0.0
 22
0.0
 32
0.0
 14
0.0
 24
0.0
 34
0.0
 15
0.0
 25
0.0
 35
0.0
146
0.0
 13
0.0
 23
0.0
 33
0.0
 16
1.0
 26
0.0
 36
0.0
 17
0.0
 27
1.0
 37
0.0
 76
     0
330
70
  0
MATERIAL
  5
19
102
{ACAD_XDICTIONARY
360
1A
102
}
102
{ACAD_REACTORS
330
10
102
}
330
10
100
AcDbMaterial
  1
ByBlock
 72
     0
 43
0.0208333333333333
 43
0.0
 43
0.0
 43
0.0
 43
0.0
 43
0.0208333333333333
 43
0.0
 43
0.0
 43
0.0
 43
0.0
 43
1.0
 43
0.0
 43
0.0
 43
0.0
 43
0.0
 43
1.0
 77
     0
 47
0.0208333333333333
 47
0.0
 47
0.0
 47
0.0
 47
0.0
 47
0.0208333333333333
 47
0.0
 47
0.0
 47
0.0
 47
0.0
 47
1.0
 47
0.0
 47
0.0
 47
0.0
 47
0.0
 47
1.0
171
     0
 49
0.0208333333333333
 49
0.0
 49
0.0
 49
0.0
 49
0.0
 49
0.0208333333333333
 49
0.0
 49
0.0
 49
0.0
 49
0.0
 49
1.0
 49
0.0
 49
0.0
 49
0.0
 49
0.0
 49
1.0
175
     0
142
0.0208333333333333
142
0.0
142
0.0
142
0.0
142
0.0
142
0.0208333333333333
142
0.0
142
0.0
142
0.0
142
0.0
142
1.0
142
0.0
142
0.0
142
0.0
142
0.0
142
1.0
179
     0
144
0.0208333333333333
144
0.0
144
0.0
144
0.0
144
0.0
144
0.0208333333333333
144
0.0
144
0.0
144
0.0
144
0.0
144
1.0
144
0.0
144
0.0
144
0.0
144
0.0
144
1.0
147
0.0208333333333333
147
0.0
147
0.0
147
0.0
147
0.0
147
0.0208333333333333
147
0.0
147
0.0
147
0.0
147
0.0
147
1.0
147
0.0
147
0.0
147
0.0
147
0.0
147
1.0
  0
MATERIAL
  5
11
102
{ACAD_XDICTIONARY
360
12
102
}
102
{ACAD_REACTORS
330
10
102
}
330
10
100
AcDbMaterial
  1
ByLayer
 72
     0
 43
0.0208333333333333
 43
0.0
 43
0.0
 43
0.0
 43
0.0
 43
0.0208333333333333
 43
0.0
 43
0.0
 43
0.0
 43
0.0
 43
1.0
 43
0.0
 43
0.0
 43
0.0
 43
0.0
 43
1.0
 77
     0
 47
0.0208333333333333
 47
0.0
 47
0.0
 47
0.0
 47
0.0
 47
0.0208333333333333
 47
0.0
 47
0.0
 47
0.0
 47
0.0
 47
1.0
 47
0.0
 47
0.0
 47
0.0
 47
0.0
 47
1.0
171
     0
 49
0.0208333333333333
 49
0.0
 49
0.0
 49
0.0
 49
0.0
 49
0.0208333333333333
 49
0.0
 49
0.0
 49
0.0
 49
0.0
 49
1.0
 49
0.0
 49
0.0
 49
0.0
 49
0.0
 49
1.0
175
     0
142
0.0208333333333333
142
0.0
142
0.0
142
0.0
142
0.0
142
0.0208333333333333
142
0.0
142
0.0
142
0.0
142
0.0
142
1.0
142
0.0
142
0.0
142
0.0
142
0.0
142
1.0
179
     0
144
0.0208333333333333
144
0.0
144
0.0
144
0.0
144
0.0
144
0.0208333333333333
144
0.0
144
0.0
144
0.0
144
0.0
144
1.0
144
0.0
144
0.0
144
0.0
144
0.0
144
1.0
147
0.0208333333333333
147
0.0
147
0.0
147
0.0
147
0.0
147
0.0208333333333333
147
0.0
147
0.0
147
0.0
147
0.0
147
1.0
147
0.0
147
0.0
147
0.0
147
0.0
147
1.0
  0
MATERIAL
  5
21
102
{ACAD_XDICTIONARY
360
22
102
}
102
{ACAD_REACTORS
330
10
102
}
330
10
100
AcDbMaterial
  1
Global
 72
     0
 43
0.0208333333333333
 43
0.0
 43
0.0
 43
0.0
 43
0.0
 43
0.0208333333333333
 43
0.0
 43
0.0
 43
0.0
 43
0.0
 43
1.0
 43
0.0
 43
0.0
 43
0.0
 43
0.0
 43
1.0
 77
     0
 47
0.0208333333333333
 47
0.0
 47
0.0
 47
0.0
 47
0.0
 47
0.0208333333333333
 47
0.0
 47
0.0
 47
0.0
 47
0.0
 47
1.0
 47
0.0
 47
0.0
 47
0.0
 47
0.0
 47
1.0
171
     0
 49
0.0208333333333333
 49
0.0
 49
0.0
 49
0.0
 49
0.0
 49
0.0208333333333333
 49
0.0
 49
0.0
 49
0.0
 49
0.0
 49
1.0
 49
0.0
 49
0.0
 49
0.0
 49
0.0
 49
1.0
175
     0
142
0.0208333333333333
142
0.0
142
0.0
142
0.0
142
0.0
142
0.0208333333333333
142
0.0
142
0.0
142
0.0
142
0.0
142
1.0
142
0.0
142
0.0
142
0.0
142
0.0
142
1.0
179
     0
144
0.0208333333333333
144
0.0
144
0.0
144
0.0
144
0.0
144
0.0208333333333333
144
0.0
144
0.0
144
0.0
144
0.0
144
1.0
144
0.0
144
0.0
144
0.0
144
0.0
144
1.0
147
0.0208333333333333
147
0.0
147
0.0
147
0.0
147
0.0
147
0.0208333333333333
147
0.0
147
0.0
147
0.0
147
0.0
147
1.0
147
0.0
147
0.0
147
0.0
147
0.0
147
1.0
  0
MLEADERSTYLE
  5
67
102
{ACAD_REACTORS
330
66
102
}
330
66
100
AcDbMLeaderStyle
179
     2
170
     2
171
     1
172
     0
 90
        2
 40
0.0
 41
0.0
173
     1
 91
-1056964608
340
5B
 92
       -2
290
     1
 42
0.09
291
     1
 43
0.36
  3
Standard
 44
0.18
300

342
55
174
     1
178
     6
175
     1
176
     0
 93
-1056964608
 45
0.18
292
     0
297
     0
 46
0.18
 94
-1056964608
 47
1.0
 49
1.0
140
1.0
293
     1
141
0.0
294
     1
177
     0
142
1.0
295
     1
296
     0
143
0.125
271
     0
272
     9
273
     9
298
     1
  0
MLINESTYLE
  5
60
102
{ACAD_REACTORS
330
5F
102
}
330
5F
100
AcDbMlineStyle
  2
STANDARD
 70
     0
  3

 62
   256
 51
90.0
 52
90.0
 71
     2
 49
0.5
 62
   256
  6
BYLAYER
 49
-0.5
 62
   256
  6
BYLAYER
  0
ACDBPLACEHOLDER
  5
F
102
{ACAD_REACTORS
330
E
102
}
330
E
  0
SCALE
  5
43
102
{ACAD_REACTORS
330
42
102
}
330
42
100
AcDbScale
 70
     0
300
1:1
140
1.0
141
1.0
290
     1
  0
SCALE
  5
44
102
{ACAD_REACTORS
330
42
102
}
330
42
100
AcDbScale
 70
     0
300
1/128" = 1'-0"
140
0.0078125
141
12.0
290
     0
  0
SCALE
  5
45
102
{ACAD_REACTORS
330
42
102
}
330
42
100
AcDbScale
 70
     0
300
1/64" = 1'-0"
140
0.015625
141
12.0
290
     0
  0
SCALE
  5
46
102
{ACAD_REACTORS
330
42
102
}
330
42
100
AcDbScale
 70
     0
300
1/32" = 1'-0"
140
0.03125
141
12.0
290
     0
  0
SCALE
  5
47
102
{ACAD_REACTORS
330
42
102
}
330
42
100
AcDbScale
 70
     0
300
1/16" = 1'-0"
140
0.0625
141
12.0
290
     0
  0
SCALE
  5
48
102
{ACAD_REACTORS
330
42
102
}
330
42
100
AcDbScale
 70
     0
300
3/32" = 1'-0"
140
0.09375
141
12.0
290
     0
  0
SCALE
  5
49
102
{ACAD_REACTORS
330
42
102
}
330
42
100
AcDbScale
 70
     0
300
1/8" = 1'-0"
140
0.125
141
12.0
290
     0
  0
SCALE
  5
4A
102
{ACAD_REACTORS
330
42
102
}
330
42
100
AcDbScale
 70
     0
300
3/16" = 1'-0"
140
0.1875
141
12.0
290
     0
  0
SCALE
  5
4B
102
{ACAD_REACTORS
330
42
102
}
330
42
100
AcDbScale
 70
     0
300
1/4" = 1'-0"
140
0.25
141
12.0
290
     0
  0
SCALE
  5
4C
102
{ACAD_REACTORS
330
42
102
}
330
42
100
AcDbScale
 70
     0
300
3/8" = 1'-0"
140
0.375
141
12.0
290
     0
  0
SCALE
  5
4D
102
{ACAD_REACTORS
330
42
102
}
330
42
100
AcDbScale
 70
     0
300
1/2" = 1'-0"
140
0.5
141
12.0
290
     0
  0
SCALE
  5
4E
102
{ACAD_REACTORS
330
42
102
}
330
42
100
AcDbScale
 70
     0
300
3/4" = 1'-0"
140
0.75
141
12.0
290
     0
  0
SCALE
  5
4F
102
{ACAD_REACTORS
330
42
102
}
330
42
100
AcDbScale
 70
     0
300
1" = 1'-0"
140
1.0
141
12.0
290
     0
  0
SCALE
  5
50
102
{ACAD_REACTORS
330
42
102
}
330
42
100
AcDbScale
 70
     0
300
1-1/2" = 1'-0"
140
1.5
141
12.0
290
     0
  0
SCALE
  5
51
102
{ACAD_REACTORS
330
42
102
}
330
42
100
AcDbScale
 70
     0
300
3" = 1'-0"
140
3.0
141
12.0
290
     0
  0
SCALE
  5
52
102
{ACAD_REACTORS
330
42
102
}
330
42
100
AcDbScale
 70
     0
300
6" = 1'-0"
140
6.0
141
12.0
290
     0
  0
SCALE
  5
53
102
{ACAD_REACTORS
330
42
102
}
330
42
100
AcDbScale
 70
     0
300
1'-0" = 1'-0"
140
12.0
141
12.0
290
     0
  0
ACDBSECTIONVIEWSTYLE
  5
69
102
{ACAD_REACTORS
330
68
102
}
330
68
100
AcDbModelDocViewStyle
 70
     0
  3
Imperial24
290
     1
300
Imperial24
 90
        0
100
AcDbSectionViewStyle
 70
     0
 71
     0
 90
       78
 71
     1
340
55
 62
   256
 40
0.24
340
0
340
0
 62
   256
 40
0.24
300
I, O, Q, S, X, Z
 40
0.48
 90
        3
 40
0.18
 90
        1
 71
     2
340
5D
 90
       25
 62
   256
340
5D
 90
       50
 62
   256
 40
0.24
 40
0.0
 40
0.24
 71
     3
340
55
 62
   256
 40
0.24
 90
        1
 40
0.75
 90
        1
300
%<\AcVar ViewType \f "%tc1">% %<\AcVar ViewSectionStartId>%-%<\AcVar ViewSectionEndId>%\PSCALE %<\AcVar ViewScale \f "%sn">%
 71
     4
 62
   256
 62
   257
300
ANSI31
 40
1.0
 90
        0
290
     0
290
     0
 90
        6
 40
0.0
 40
1.570796326794896
 40
0.2617993877991494
 40
1.308996938995747
 40
-0.2617993877991494
 40
1.832595714594046
  0
TABLESTYLE
  5
65
102
{ACAD_XDICTIONARY
360
8F
102
}
102
{ACAD_REACTORS
330
64
102
}
330
64
100
AcDbTableStyle
280
     0
  3
Standard
 70
     0
 71
     0
 40
0.06
 41
0.06
280
     0
281
     0
  7
Standard
140
0.18
170
     2
 62
     0
 63
     7
283
     0
 90
      512
 91
        0
  1

274
    -2
284
     1
 64
     0
275
    -2
285
     1
 65
     0
276
    -2
286
     1
 66
     0
277
    -2
287
     1
 67
     0
278
    -2
288
     1
 68
     0
279
    -2
289
     1
 69
     0
  7
Standard
140
0.25
170
     5
 62
     0
 63
     7
283
     0
 90
      512
 91
        0
  1

274
    -2
284
     1
 64
     0
275
    -2
285
     1
 65
     0
276
    -2
286
     1
 66
     0
277
    -2
287
     1
 67
     0
278
    -2
288
     1
 68
     0
279
    -2
289
     1
 69
     0
  7
Standard
140
0.18
170
     5
 62
     0
 63
     7
283
     0
 90
      512
 91
        0
  1

274
    -2
284
     1
 64
     0
275
    -2
285
     1
 65
     0
276
    -2
286
     1
 66
     0
277
    -2
287
     1
 67
     0
278
    -2
288
     1
 68
     0
279
    -2
289
     1
 69
     0
  0
VISUALSTYLE
  5
2F
102
{ACAD_REACTORS
330
29
102
}
330
29
100
AcDbVisualStyle
  2
2dWireframe
 70
     4
177
     3
291
     0
 70
    58
 90
        0
176
     1
 90
        2
176
     1
 90
        0
176
     1
 90
        0
176
     1
 40
0.6
176
     1
 40
30.0
176
     1
 62
     7
420
 16777215
176
     1
 90
        1
176
     1
 90
        4
176
     1
 62
     7
176
     1
 62
   257
176
     1
 90
        1
176
     1
 90
        1
176
     1
 40
1.0
176
     1
 90
        0
176
     1
 62
   257
176
     1
 40
1.0
176
     1
 90
        1
176
     1
 90
        6
176
     1
 90
        2
176
     1
 62
     7
176
     1
 90
        5
176
     1
 90
        0
176
     1
 90
        0
176
     1
290
     0
176
     1
 90
        1
176
     1
 40
0.0
176
     1
 90
        0
176
     1
290
     1
176
     1
290
     1
176
     1
290
     0
176
     1
290
     0
176
     1
290
     0
176
     1
290
     0
176
     1
290
     0
176
     1
290
     0
176
     1
290
     0
176
     1
 90
       50
176
     1
 40
0.0
176
     1
 40
1.0
176
     1
 90
        0
176
     1
 62
    18
420
        0
176
     1
 90
       50
176
     1
 90
        3
176
     1
 62
     5
420
      255
176
     1
290
     0
176
     1
 90
       50
176
     1
 90
       50
176
     1
 90
       50
176
     1
290
     0
176
     1
 90
       50
176
     1
 62
   256
176
     0
 40
1.0
176
     0
 90
        2
176
     1
  1
strokes_ogs.tif
176
     1
290
     0
176
     1
 40
1.0
176
     1
 40
1.0
176
     1
  0
VISUALSTYLE
  5
2E
102
{ACAD_REACTORS
330
29
102
}
330
29
100
AcDbVisualStyle
  2
Basic
 70
     7
177
     3
291
     1
 70
    58
 90
        1
176
     1
 90
        0
176
     1
 90
        1
176
     1
 90
        0
176
     1
 40
0.6
176
     1
 40
30.0
176
     1
 62
     7
420
 16777215
176
     1
 90
        0
176
     1
 90
        4
176
     1
 62
     7
176
     1
 62
   257
176
     1
 90
        1
176
     1
 90
        1
176
     1
 40
1.0
176
     1
 90
        8
176
     1
 62
     7
176
     1
 40
1.0
176
     1
 90
        1
176
     1
 90
        6
176
     1
 90
        2
176
     1
 62
     7
176
     1
 90
        5
176
     1
 90
        0
176
     1
 90
        0
176
     1
290
     0
176
     1
 90
        1
176
     1
 40
0.0
176
     1
 90
        0
176
     1
290
     0
176
     1
290
     1
176
     1
290
     1
176
     1
290
     0
176
     1
290
     0
176
     1
290
     0
176
     1
290
     0
176
     1
290
     0
176
     1
290
     0
176
     1
 90
       50
176
     1
 40
0.0
176
     1
 40
1.0
176
     1
 90
        0
176
     1
 62
    18
420
        0
176
     1
 90
       50
176
     1
 90
        3
176
     1
 62
     5
420
      255
176
     1
290
     0
176
     1
 90
       50
176
     1
 90
       50
176
     1
 90
       50
176
     1
290
     0
176
     1
 90
       50
176
     1
 62
   256
176
     0
 40
1.0
176
     0
 90
        2
176
     1
  1
strokes_ogs.tif
176
     1
290
     0
176
     1
 40
1.0
176
     1
 40
1.0
176
     1
  0
VISUALSTYLE
  5
35
102
{ACAD_REACTORS
330
29
102
}
330
29
100
AcDbVisualStyle
  2
Brighten
 70
    12
177
     3
291
     1
 70
    58
 90
        2
176
     1
 90
        2
176
     1
 90
        0
176
     1
 90
        0
176
     1
 40
0.6
176
     1
 40
30.0
176
     1
 62
     7
420
 16777215
176
     1
 90
        1
176
     1
 90
        4
176
     1
 62
     7
176
     1
 62
   257
176
     1
 90
        1
176
     1
 90
        1
176
     1
 40
1.0
176
     1
 90
        8
176
     1
 62
     7
176
     1
 40
1.0
176
     1
 90
        1
176
     1
 90
        6
176
     1
 90
        2
176
     1
 62
     7
176
     1
 90
        5
176
     1
 90
        0
176
     1
 90
        0
176
     1
290
     0
176
     1
 90
        1
176
     1
 40
50.0
176
     1
 90
        0
176
     1
290
     0
176
     1
290
     1
176
     1
290
     1
176
     1
290
     0
176
     1
290
     0
176
     1
290
     0
176
     1
290
     0
176
     1
290
     0
176
     1
290
     0
176
     1
 90
       50
176
     1
 40
0.0
176
     1
 40
1.0
176
     1
 90
        0
176
     1
 62
    18
420
        0
176
     1
 90
       50
176
     1
 90
        3
176
     1
 62
     5
420
      255
176
     1
290
     0
176
     1
 90
       50
176
     1
 90
       50
176
     1
 90
       50
176
     1
290
     0
176
     1
 90
       50
176
     1
 62
   256
176
     0
 40
1.0
176
     0
 90
        2
176
     1
  1
strokes_ogs.tif
176
     1
290
     0
176
     1
 40
1.0
176
     1
 40
1.0
176
     1
  0
VISUALSTYLE
  5
39
102
{ACAD_REACTORS
330
29
102
}
330
29
100
AcDbVisualStyle
  2
ColorChange
 70
    16
177
     3
291
     1
 70
    58
 90
        2
176
     1
 90
        2
176
     1
 90
        3
176
     1
 90
        0
176
     1
 40
0.6
176
     1
 40
30.0
176
     1
 62
     8
420
  8421504
176
     1
 90
        1
176
     1
 90
        4
176
     1
 62
     7
176
     1
 62
   257
176
     1
 90
        1
176
     1
 90
        1
176
     1
 40
1.0
176
     1
 90
        8
176
     1
 62
     8
420
  8421504
176
     1
 40
1.0
176
     1
 90
        1
176
     1
 90
        6
176
     1
 90
        2
176
     1
 62
     7
176
     1
 90
        5
176
     1
 90
        0
176
     1
 90
        0
176
     1
290
     0
176
     1
 90
        1
176
     1
 40
0.0
176
     1
 90
        0
176
     1
290
     0
176
     1
290
     1
176
     1
290
     1
176
     1
290
     0
176
     1
290
     0
176
     1
290
     0
176
     1
290
     0
176
     1
290
     0
176
     1
290
     0
176
     1
 90
       50
176
     1
 40
0.0
176
     1
 40
1.0
176
     1
 90
        0
176
     1
 62
    18
420
        0
176
     1
 90
       50
176
     1
 90
        3
176
     1
 62
     5
420
      255
176
     1
290
     0
176
     1
 90
       50
176
     1
 90
       50
176
     1
 90
       50
176
     1
290
     0
176
     1
 90
       50
176
     1
 62
   256
176
     0
 40
1.0
176
     0
 90
        2
176
     1
  1
strokes_ogs.tif
176
     1
290
     0
176
     1
 40
1.0
176
     1
 40
1.0
176
     1
  0
VISUALSTYLE
  5
32
102
{ACAD_REACTORS
330
29
102
}
330
29
100
AcDbVisualStyle
  2
Conceptual
 70
     9
177
     3
291
     0
 70
    58
 90
        3
176
     1
 90
        2
176
     1
 90
        0
176
     1
 90
        0
176
     1
 40
0.6
176
     1
 40
30.0
176
     1
 62
     7
420
 16777215
176
     1
 90
        2
176
     1
 90
        2
176
     1
 62
     7
176
     1
 62
   257
176
     1
 90
        1
176
     1
 90
        1
176
     1
 40
179.0
176
     1
 90
        8
176
     1
 62
     7
176
     1
 40
1.0
176
     1
 90
        1
176
     1
 90
        6
176
     1
 90
        2
176
     1
 62
     7
176
     1
 90
        3
176
     1
 90
        0
176
     1
 90
        0
176
     1
290
     0
176
     1
 90
        1
176
     1
 40
0.0
176
     1
 90
        0
176
     1
290
     0
176
     1
290
     1
176
     1
290
     1
176
     1
290
     0
176
     1
290
     0
176
     1
290
     0
176
     1
290
     0
176
     1
290
     0
176
     1
290
     0
176
     1
 90
       50
176
     1
 40
0.0
176
     1
 40
1.0
176
     1
 90
        0
176
     1
 62
    18
420
        0
176
     1
 90
       50
176
     1
 90
        3
176
     1
 62
     5
420
      255
176
     1
290
     0
176
     1
 90
       50
176
     1
 90
       50
176
     1
 90
       50
176
     1
290
     0
176
     1
 90
       50
176
     1
 62
   256
176
     0
 40
1.0
176
     0
 90
        2
176
     1
  1
strokes_ogs.tif
176
     1
290
     0
176
     1
 40
1.0
176
     1
 40
1.0
176
     1
  0
VISUALSTYLE
  5
34
102
{ACAD_REACTORS
330
29
102
}
330
29
100
AcDbVisualStyle
  2
Dim
 70
    11
177
     3
291
     1
 70
    58
 90
        2
176
     1
 90
        2
176
     1
 90
        0
176
     1
 90
        0
176
     1
 40
0.6
176
     1
 40
30.0
176
     1
 62
     7
420
 16777215
176
     1
 90
        1
176
     1
 90
        4
176
     1
 62
     7
176
     1
 62
   257
176
     1
 90
        1
176
     1
 90
        1
176
     1
 40
1.0
176
     1
 90
        8
176
     1
 62
     7
176
     1
 40
1.0
176
     1
 90
        1
176
     1
 90
        6
176
     1
 90
        2
176
     1
 62
     7
176
     1
 90
        5
176
     1
 90
        0
176
     1
 90
        0
176
     1
290
     0
176
     1
 90
        1
176
     1
 40
-50.0
176
     1
 90
        0
176
     1
290
     0
176
     1
290
     1
176
     1
290
     1
176
     1
290
     0
176
     1
290
     0
176
     1
290
     0
176
     1
290
     0
176
     1
290
     0
176
     1
290
     0
176
     1
 90
       50
176
     1
 40
0.0
176
     1
 40
1.0
176
     1
 90
        0
176
     1
 62
    18
420
        0
176
     1
 90
       50
176
     1
 90
        3
176
     1
 62
     5
420
      255
176
     1
290
     0
176
     1
 90
       50
176
     1
 90
       50
176
     1
 90
       50
176
     1
290
     0
176
     1
 90
       50
176
     1
 62
   256
176
     0
 40
1.0
176
     0
 90
        2
176
     1
  1
strokes_ogs.tif
176
     1
290
     0
176
     1
 40
1.0
176
     1
 40
1.0
176
     1
  0
VISUALSTYLE
  5
41
102
{ACAD_REACTORS
330
29
102
}
330
29
100
AcDbVisualStyle
  2
EdgeColorOff
 70
    22
177
     3
291
     1
 70
    58
 90
        2
176
     0
 90
        2
176
     0
 90
        0
176
     0
 90
        0
176
     0
 40
0.6
176
     0
 40
30.0
176
     0
 62
     7
420
 16777215
176
     0
 90
        1
176
     0
 90
        4
176
     0
 62
     7
176
     0
 62
   257
176
     0
 90
        1
176
     0
 90
        1
176
     0
 40
1.0
176
     0
 90
        8
176
     2
 62
     7
176
     0
 40
1.0
176
     0
 90
        1
176
     0
 90
        6
176
     0
 90
        2
176
     0
 62
     7
176
     0
 90
        5
176
     0
 90
        0
176
     0
 90
        0
176
     0
290
     0
176
     0
 90
        1
176
     0
 40
0.0
176
     0
 90
        0
176
     0
290
     0
176
     0
290
     1
176
     0
290
     1
176
     0
290
     0
176
     0
290
     0
176
     0
290
     0
176
     0
290
     0
176
     0
290
     0
176
     0
290
     0
176
     0
 90
       50
176
     0
 40
0.0
176
     0
 40
1.0
176
     0
 90
        0
176
     0
 62
    18
420
        0
176
     0
 90
       50
176
     0
 90
        3
176
     0
 62
     5
420
      255
176
     0
290
     0
176
     0
 90
       50
176
     0
 90
       50
176
     0
 90
       50
176
     0
290
     0
176
     0
 90
       50
176
     0
 62
   256
176
     0
 40
1.0
176
     0
 90
        2
176
     0
  1
strokes_ogs.tif
176
     0
290
     0
176
     0
 40
1.0
176
     0
 40
1.0
176
     0
  0
VISUALSTYLE
  5
38
102
{ACAD_REACTORS
330
29
102
}
330
29
100
AcDbVisualStyle
  2
Facepattern
 70
    15
177
     3
291
     1
 70
    58
 90
        2
176
     1
 90
        2
176
     1
 90
        0
176
     1
 90
        0
176
     1
 40
0.6
176
     1
 40
30.0
176
     1
 62
     7
420
 16777215
176
     1
 90
        1
176
     1
 90
        4
176
     1
 62
     7
176
     1
 62
   257
176
     1
 90
        1
176
     1
 90
        1
176
     1
 40
1.0
176
     1
 90
        8
176
     1
 62
     7
176
     1
 40
1.0
176
     1
 90
        1
176
     1
 90
        6
176
     1
 90
        2
176
     1
 62
     7
176
     1
 90
        5
176
     1
 90
        0
176
     1
 90
        0
176
     1
290
     0
176
     1
 90
        1
176
     1
 40
0.0
176
     1
 90
        0
176
     1
290
     0
176
     1
290
     1
176
     1
290
     1
176
     1
290
     0
176
     1
290
     0
176
     1
290
     0
176
     1
290
     0
176
     1
290
     0
176
     1
290
     0
176
     1
 90
       50
176
     1
 40
0.0
176
     1
 40
1.0
176
     1
 90
        0
176
     1
 62
    18
420
        0
176
     1
 90
       50
176
     1
 90
        3
176
     1
 62
     5
420
      255
176
     1
290
     0
176
     1
 90
       50
176
     1
 90
       50
176
     1
 90
       50
176
     1
290
     0
176
     1
 90
       50
176
     1
 62
   256
176
     0
 40
1.0
176
     0
 90
        2
176
     1
  1
strokes_ogs.tif
176
     1
290
     0
176
     1
 40
1.0
176
     1
 40
1.0
176
     1
  0
VISUALSTYLE
  5
2A
102
{ACAD_REACTORS
330
29
102
}
330
29
100
AcDbVisualStyle
  2
Flat
 70
     0
177
     3
291
     1
 70
    58
 90
        2
176
     1
 90
        1
176
     1
 90
        1
176
     1
 90
        2
176
     1
 40
0.6
176
     1
 40
30.0
176
     1
 62
     7
420
 16777215
176
     1
 90
        0
176
     1
 90
        0
176
     1
 62
     7
176
     1
 62
   257
176
     1
 90
        1
176
     1
 90
        1
176
     1
 40
1.0
176
     1
 90
        8
176
     1
 62
     7
176
     1
 40
1.0
176
     1
 90
        1
176
     1
 90
        6
176
     1
 90
        2
176
     1
 62
     7
176
     1
 90
        5
176
     1
 90
        0
176
     1
 90
        0
176
     1
290
     0
176
     1
 90
       13
176
     1
 40
0.0
176
     1
 90
        0
176
     1
290
     0
176
     1
290
     1
176
     1
290
     1
176
     1
290
     0
176
     1
290
     0
176
     1
290
     0
176
     1
290
     0
176
     1
290
     0
176
     1
290
     0
176
     1
 90
       50
176
     1
 40
0.0
176
     1
 40
1.0
176
     1
 90
        0
176
     1
 62
    18
420
        0
176
     1
 90
       50
176
     1
 90
        3
176
     1
 62
     5
420
      255
176
     1
290
     0
176
     1
 90
       50
176
     1
 90
       50
176
     1
 90
       50
176
     1
290
     0
176
     1
 90
       50
176
     1
 62
   256
176
     0
 40
1.0
176
     0
 90
        2
176
     1
  1
strokes_ogs.tif
176
     1
290
     0
176
     1
 40
1.0
176
     1
 40
1.0
176
     1
  0
VISUALSTYLE
  5
2B
102
{ACAD_REACTORS
330
29
102
}
330
29
100
AcDbVisualStyle
  2
FlatWithEdges
 70
     1
177
     3
291
     1
 70
    58
 90
        2
176
     1
 90
        1
176
     1
 90
        1
176
     1
 90
        2
176
     1
 40
0.6
176
     1
 40
30.0
176
     1
 62
     7
420
 16777215
176
     1
 90
        1
176
     1
 90
        0
176
     1
 62
     7
176
     1
 62
   257
176
     1
 90
        1
176
     1
 90
        1
176
     1
 40
1.0
176
     1
 90
        0
176
     1
 62
   257
176
     1
 40
1.0
176
     1
 90
        1
176
     1
 90
        6
176
     1
 90
        2
176
     1
 62
     7
176
     1
 90
        5
176
     1
 90
        0
176
     1
 90
        0
176
     1
290
     0
176
     1
 90
       13
176
     1
 40
0.0
176
     1
 90
        0
176
     1
290
     0
176
     1
290
     1
176
     1
290
     1
176
     1
290
     0
176
     1
290
     0
176
     1
290
     0
176
     1
290
     0
176
     1
290
     0
176
     1
290
     0
176
     1
 90
       50
176
     1
 40
0.0
176
     1
 40
1.0
176
     1
 90
        0
176
     1
 62
    18
420
        0
176
     1
 90
       50
176
     1
 90
        3
176
     1
 62
     5
420
      255
176
     1
290
     0
176
     1
 90
       50
176
     1
 90
       50
176
     1
 90
       50
176
     1
290
     0
176
     1
 90
       50
176
     1
 62
   256
176
     0
 40
1.0
176
     0
 90
        2
176
     1
  1
strokes_ogs.tif
176
     1
290
     0
176
     1
 40
1.0
176
     1
 40
1.0
176
     1
  0
VISUALSTYLE
  5
2C
102
{ACAD_REACTORS
330
29
102
}
330
29
100
AcDbVisualStyle
  2
Gouraud
 70
     2
177
     3
291
     1
 70
    58
 90
        2
176
     1
 90
        2
176
     1
 90
        1
176
     1
 90
        2
176
     1
 40
0.6
176
     1
 40
30.0
176
     1
 62
     7
420
 16777215
176
     1
 90
        0
176
     1
 90
        0
176
     1
 62
     7
176
     1
 62
   257
176
     1
 90
        1
176
     1
 90
        1
176
     1
 40
1.0
176
     1
 90
        0
176
     1
 62
     7
176
     1
 40
1.0
176
     1
 90
        1
176
     1
 90
        6
176
     1
 90
        2
176
     1
 62
     7
176
     1
 90
        5
176
     1
 90
        0
176
     1
 90
        0
176
     1
290
     0
176
     1
 90
       13
176
     1
 40
0.0
176
     1
 90
        0
176
     1
290
     0
176
     1
290
     1
176
     1
290
     1
176
     1
290
     0
176
     1
290
     0
176
     1
290
     0
176
     1
290
     0
176
     1
290
     0
176
     1
290
     0
176
     1
 90
       50
176
     1
 40
0.0
176
     1
 40
1.0
176
     1
 90
        0
176
     1
 62
    18
420
        0
176
     1
 90
       50
176
     1
 90
        3
176
     1
 62
     5
420
      255
176
     1
290
     0
176
     1
 90
       50
176
     1
 90
       50
176
     1
 90
       50
176
     1
290
     0
176
     1
 90
       50
176
     1
 62
   256
176
     0
 40
1.0
176
     0
 90
        2
176
     1
  1
strokes_ogs.tif
176
     1
290
     0
176
     1
 40
1.0
176
     1
 40
1.0
176
     1
  0
VISUALSTYLE
  5
2D
102
{ACAD_REACTORS
330
29
102
}
330
29
100
AcDbVisualStyle
  2
GouraudWithEdges
 70
     3
177
     3
291
     1
 70
    58
 90
        2
176
     1
 90
        2
176
     1
 90
        1
176
     1
 90
        2
176
     1
 40
0.6
176
     1
 40
30.0
176
     1
 62
     7
420
 16777215
176
     1
 90
        1
176
     1
 90
        0
176
     1
 62
     7
176
     1
 62
   257
176
     1
 90
        1
176
     1
 90
        1
176
     1
 40
1.0
176
     1
 90
        0
176
     1
 62
   257
176
     1
 40
1.0
176
     1
 90
        1
176
     1
 90
        6
176
     1
 90
        2
176
     1
 62
     7
176
     1
 90
        5
176
     1
 90
        0
176
     1
 90
        0
176
     1
290
     0
176
     1
 90
       13
176
     1
 40
0.0
176
     1
 90
        0
176
     1
290
     0
176
     1
290
     1
176
     1
290
     1
176
     1
290
     0
176
     1
290
     0
176
     1
290
     0
176
     1
290
     0
176
     1
290
     0
176
     1
290
     0
176
     1
 90
       50
176
     1
 40
0.0
176
     1
 40
1.0
176
     1
 90
        0
176
     1
 62
    18
420
        0
176
     1
 90
       50
176
     1
 90
        3
176
     1
 62
     5
420
      255
176
     1
290
     0
176
     1
 90
       50
176
     1
 90
       50
176
     1
 90
       50
176
     1
290
     0
176
     1
 90
       50
176
     1
 62
   256
176
     0
 40
1.0
176
     0
 90
        2
176
     1
  1
strokes_ogs.tif
176
     1
290
     0
176
     1
 40
1.0
176
     1
 40
1.0
176
     1
  0
VISUALSTYLE
  5
31
102
{ACAD_REACTORS
330
29
102
}
330
29
100
AcDbVisualStyle
  2
Hidden
 70
     6
177
     3
291
     0
 70
    58
 90
        1
176
     1
 90
        2
176
     1
 90
        2
176
     1
 90
        0
176
     1
 40
0.6
176
     1
 40
30.0
176
     1
 62
     7
420
 16777215
176
     1
 90
        2
176
     1
 90
        2
176
     1
 62
     7
176
     1
 62
   257
176
     1
 90
        2
176
     1
 90
        1
176
     1
 40
40.0
176
     1
 90
        0
176
     1
 62
   257
176
     1
 40
1.0
176
     1
 90
        1
176
     1
 90
        6
176
     1
 90
        2
176
     1
 62
     7
176
     1
 90
        3
176
     1
 90
        0
176
     1
 90
        0
176
     1
290
     0
176
     1
 90
        1
176
     1
 40
0.0
176
     1
 90
        0
176
     1
290
     0
176
     1
290
     1
176
     1
290
     1
176
     1
290
     0
176
     1
290
     0
176
     1
290
     0
176
     1
290
     0
176
     1
290
     0
176
     1
290
     0
176
     1
 90
       50
176
     1
 40
0.0
176
     1
 40
1.0
176
     1
 90
        0
176
     1
 62
    18
420
        0
176
     1
 90
       50
176
     1
 90
        3
176
     1
 62
     5
420
      255
176
     1
290
     0
176
     1
 90
       50
176
     1
 90
       50
176
     1
 90
       50
176
     1
290
     0
176
     1
 90
       50
176
     1
 62
   256
176
     0
 40
1.0
176
     0
 90
        2
176
     1
  1
strokes_ogs.tif
176
     1
290
     0
176
     1
 40
1.0
176
     1
 40
1.0
176
     1
  0
VISUALSTYLE
  5
3F
102
{ACAD_REACTORS
330
29
102
}
330
29
100
AcDbVisualStyle
  2
JitterOff
 70
    20
177
     3
291
     1
 70
    58
 90
        2
176
     0
 90
        2
176
     0
 90
        0
176
     0
 90
        0
176
     0
 40
0.6
176
     0
 40
30.0
176
     0
 62
     7
420
 16777215
176
     0
 90
        1
176
     0
 90
        4
176
     0
 62
     7
176
     0
 62
   257
176
     0
 90
        1
176
     0
 90
        1
176
     0
 40
1.0
176
     0
 90
       10
176
     2
 62
     7
176
     0
 40
1.0
176
     0
 90
        1
176
     0
 90
        6
176
     0
 90
        2
176
     0
 62
     7
176
     0
 90
        5
176
     0
 90
        0
176
     0
 90
        0
176
     0
290
     0
176
     0
 90
        1
176
     0
 40
0.0
176
     0
 90
        0
176
     0
290
     0
176
     0
290
     1
176
     0
290
     1
176
     0
290
     0
176
     0
290
     0
176
     0
290
     0
176
     0
290
     0
176
     0
290
     0
176
     0
290
     0
176
     0
 90
       50
176
     0
 40
0.0
176
     0
 40
1.0
176
     0
 90
        0
176
     0
 62
    18
420
        0
176
     0
 90
       50
176
     0
 90
        3
176
     0
 62
     5
420
      255
176
     0
290
     0
176
     0
 90
       50
176
     0
 90
       50
176
     0
 90
       50
176
     0
290
     0
176
     0
 90
       50
176
     0
 62
   256
176
     0
 40
1.0
176
     0
 90
        2
176
     0
  1
strokes_ogs.tif
176
     0
290
     0
176
     0
 40
1.0
176
     0
 40
1.0
176
     0
  0
VISUALSTYLE
  5
37
102
{ACAD_REACTORS
330
29
102
}
330
29
100
AcDbVisualStyle
  2
Linepattern
 70
    14
177
     3
291
     1
 70
    58
 90
        2
176
     1
 90
        2
176
     1
 90
        0
176
     1
 90
        0
176
     1
 40
0.6
176
     1
 40
30.0
176
     1
 62
     7
420
 16777215
176
     1
 90
        1
176
     1
 90
        4
176
     1
 62
     7
176
     1
 62
   257
176
     1
 90
        7
176
     1
 90
        7
176
     1
 40
1.0
176
     1
 90
        8
176
     1
 62
     7
176
     1
 40
1.0
176
     1
 90
        1
176
     1
 90
        6
176
     1
 90
        2
176
     1
 62
     7
176
     1
 90
        5
176
     1
 90
        0
176
     1
 90
        0
176
     1
290
     0
176
     1
 90
        1
176
     1
 40
0.0
176
     1
 90
        0
176
     1
290
     0
176
     1
290
     1
176
     1
290
     1
176
     1
290
     0
176
     1
290
     0
176
     1
290
     0
176
     1
290
     0
176
     1
290
     0
176
     1
290
     0
176
     1
 90
       50
176
     1
 40
0.0
176
     1
 40
1.0
176
     1
 90
        0
176
     1
 62
    18
420
        0
176
     1
 90
       50
176
     1
 90
        3
176
     1
 62
     5
420
      255
176
     1
290
     0
176
     1
 90
       50
176
     1
 90
       50
176
     1
 90
       50
176
     1
290
     0
176
     1
 90
       50
176
     1
 62
   256
176
     0
 40
1.0
176
     0
 90
        2
176
     1
  1
strokes_ogs.tif
176
     1
290
     0
176
     1
 40
1.0
176
     1
 40
1.0
176
     1
  0
VISUALSTYLE
  5
40
102
{ACAD_REACTORS
330
29
102
}
330
29
100
AcDbVisualStyle
  2
OverhangOff
 70
    21
177
     3
291
     1
 70
    58
 90
        2
176
     0
 90
        2
176
     0
 90
        0
176
     0
 90
        0
176
     0
 40
0.6
176
     0
 40
30.0
176
     0
 62
     7
420
 16777215
176
     0
 90
        1
176
     0
 90
        4
176
     0
 62
     7
176
     0
 62
   257
176
     0
 90
        1
176
     0
 90
        1
176
     0
 40
1.0
176
     0
 90
        9
176
     2
 62
     7
176
     0
 40
1.0
176
     0
 90
        1
176
     0
 90
        6
176
     0
 90
        2
176
     0
 62
     7
176
     0
 90
        5
176
     0
 90
        0
176
     0
 90
        0
176
     0
290
     0
176
     0
 90
        1
176
     0
 40
0.0
176
     0
 90
        0
176
     0
290
     0
176
     0
290
     1
176
     0
290
     1
176
     0
290
     0
176
     0
290
     0
176
     0
290
     0
176
     0
290
     0
176
     0
290
     0
176
     0
290
     0
176
     0
 90
       50
176
     0
 40
0.0
176
     0
 40
1.0
176
     0
 90
        0
176
     0
 62
    18
420
        0
176
     0
 90
       50
176
     0
 90
        3
176
     0
 62
     5
420
      255
176
     0
290
     0
176
     0
 90
       50
176
     0
 90
       50
176
     0
 90
       50
176
     0
290
     0
176
     0
 90
       50
176
     0
 62
   256
176
     0
 40
1.0
176
     0
 90
        2
176
     0
  1
strokes_ogs.tif
176
     0
290
     0
176
     0
 40
1.0
176
     0
 40
1.0
176
     0
  0
VISUALSTYLE
  5
33
102
{ACAD_REACTORS
330
29
102
}
330
29
100
AcDbVisualStyle
  2
Realistic
 70
     8
177
     3
291
     0
 70
    58
 90
        2
176
     1
 90
        3
176
     1
 90
        0
176
     1
 90
        2
176
     1
 40
0.6
176
     1
 40
30.0
176
     1
 62
     7
420
 16777215
176
     1
 90
        0
176
     1
 90
        0
176
     1
 62
     7
176
     1
 62
   257
176
     1
 90
        1
176
     1
 90
        1
176
     1
 40
1.0
176
     1
 90
        8
176
     1
 62
   257
176
     1
 40
1.0
176
     1
 90
        1
176
     1
 90
        6
176
     1
 90
        2
176
     1
 62
     7
176
     1
 90
        3
176
     1
 90
        0
176
     1
 90
        0
176
     1
290
     0
176
     1
 90
       13
176
     1
 40
0.0
176
     1
 90
        0
176
     1
290
     0
176
     1
290
     1
176
     1
290
     1
176
     1
290
     0
176
     1
290
     0
176
     1
290
     0
176
     1
290
     0
176
     1
290
     0
176
     1
290
     0
176
     1
 90
       50
176
     1
 40
0.0
176
     1
 40
1.0
176
     1
 90
        0
176
     1
 62
    18
420
        0
176
     1
 90
       50
176
     1
 90
        3
176
     1
 62
     5
420
      255
176
     1
290
     0
176
     1
 90
       50
176
     1
 90
       50
176
     1
 90
       50
176
     1
290
     0
176
     1
 90
       50
176
     1
 62
   256
176
     0
 40
1.0
176
     0
 90
        2
176
     1
  1
strokes_ogs.tif
176
     1
290
     0
176
     1
 40
1.0
176
     1
 40
1.0
176
     1
  0
VISUALSTYLE
  5
3E
102
{ACAD_REACTORS
330
29
102
}
330
29
100
AcDbVisualStyle
  2
Shaded
 70
    27
177
     3
291
     0
 70
    58
 90
        2
176
     1
 90
        2
176
     1
 90
        1
176
     1
 90
        2
176
     1
 40
0.6
176
     1
 40
30.0
176
     1
 62
     7
420
 16777215
176
     1
 90
        0
176
     1
 90
        4
176
     1
 62
     7
176
     1
 62
   257
176
     1
 90
        1
176
     1
 90
        1
176
     1
 40
1.0
176
     1
 90
        8
176
     1
 62
   257
176
     1
 40
1.0
176
     1
 90
        1
176
     1
 90
        6
176
     1
 90
        2
176
     1
 62
     8
420
  7895160
176
     1
 90
        3
176
     1
 90
        0
176
     1
 90
        0
176
     1
290
     0
176
     1
 90
        5
176
     1
 40
0.0
176
     1
 90
        0
176
     1
290
     0
176
     1
290
     1
176
     1
290
     1
176
     1
290
     0
176
     1
290
     0
176
     1
290
     0
176
     1
290
     0
176
     1
290
     0
176
     1
290
     0
176
     1
 90
       50
176
     1
 40
0.0
176
     1
 40
1.0
176
     1
 90
        0
176
     1
 62
    18
420
        0
176
     1
 90
       50
176
     1
 90
        3
176
     1
 62
     5
420
      255
176
     1
290
     0
176
     1
 90
       50
176
     1
 90
       50
176
     1
 90
       50
176
     1
290
     0
176
     1
 90
       50
176
     1
 62
   256
176
     0
 40
1.0
176
     0
 90
        2
176
     1
  1
strokes_ogs.tif
176
     1
290
     0
176
     1
 40
1.0
176
     1
 40
1.0
176
     1
  0
VISUALSTYLE
  5
3D
102
{ACAD_REACTORS
330
29
102
}
330
29
100
AcDbVisualStyle
  2
Shaded with edges
 70
    26
177
     3
291
     0
 70
    58
 90
        2
176
     1
 90
        2
176
     1
 90
        1
176
     1
 90
        2
176
     1
 40
0.6
176
     1
 40
30.0
176
     1
 62
     7
420
 16777215
176
     1
 90
        1
176
     1
 90
        2
176
     1
 62
     7
176
     1
 62
   257
176
     1
 90
        2
176
     1
 90
        1
176
     1
 40
1.0
176
     1
 90
        8
176
     1
 62
   257
176
     1
 40
1.0
176
     1
 90
        1
176
     1
 90
        6
176
     1
 90
        2
176
     1
 62
     7
176
     1
 90
        3
176
     1
 90
        0
176
     1
 90
        0
176
     1
290
     0
176
     1
 90
        5
176
     1
 40
0.0
176
     1
 90
        0
176
     1
290
     0
176
     1
290
     1
176
     1
290
     1
176
     1
290
     0
176
     1
290
     0
176
     1
290
     0
176
     1
290
     0
176
     1
290
     0
176
     1
290
     0
176
     1
 90
       50
176
     1
 40
0.0
176
     1
 40
1.0
176
     1
 90
        0
176
     1
 62
    18
420
        0
176
     1
 90
       50
176
     1
 90
        3
176
     1
 62
     5
420
      255
176
     1
290
     0
176
     1
 90
       50
176
     1
 90
       50
176
     1
 90
       50
176
     1
290
     0
176
     1
 90
       50
176
     1
 62
   256
176
     0
 40
1.0
176
     0
 90
        2
176
     1
  1
strokes_ogs.tif
176
     1
290
     0
176
     1
 40
1.0
176
     1
 40
1.0
176
     1
  0
VISUALSTYLE
  5
3A
102
{ACAD_REACTORS
330
29
102
}
330
29
100
AcDbVisualStyle
  2
Shades of Gray
 70
    23
177
     3
291
     0
 70
    58
 90
        2
176
     1
 90
        2
176
     1
 90
        3
176
     1
 90
        0
176
     1
 40
0.6
176
     1
 40
30.0
176
     1
 62
     7
420
 16777215
176
     1
 90
        2
176
     1
 90
        2
176
     1
 62
     7
176
     1
 62
     7
176
     1
 90
        1
176
     1
 90
        1
176
     1
 40
40.0
176
     1
 90
        8
176
     1
 62
     7
176
     1
 40
1.0
176
     1
 90
        1
176
     1
 90
        6
176
     1
 90
        2
176
     1
 62
     7
176
     1
 90
        3
176
     1
 90
        0
176
     1
 90
        0
176
     1
290
     0
176
     1
 90
        1
176
     1
 40
0.0
176
     1
 90
        0
176
     1
290
     0
176
     1
290
     1
176
     1
290
     1
176
     1
290
     0
176
     1
290
     0
176
     1
290
     0
176
     1
290
     0
176
     1
290
     0
176
     1
290
     0
176
     1
 90
       50
176
     1
 40
0.0
176
     1
 40
1.0
176
     1
 90
        0
176
     1
 62
    18
420
        0
176
     1
 90
       50
176
     1
 90
        3
176
     1
 62
     5
420
      255
176
     1
290
     0
176
     1
 90
       50
176
     1
 90
       50
176
     1
 90
       50
176
     1
290
     0
176
     1
 90
       50
176
     1
 62
   256
176
     0
 40
1.0
176
     0
 90
        2
176
     1
  1
strokes_ogs.tif
176
     1
290
     0
176
     1
 40
1.0
176
     1
 40
1.0
176
     1
  0
VISUALSTYLE
  5
3B
102
{ACAD_REACTORS
330
29
102
}
330
29
100
AcDbVisualStyle
  2
Sketchy
 70
    24
177
     3
291
     0
 70
    58
 90
        1
176
     1
 90
        2
176
     1
 90
        2
176
     1
 90
        0
176
     1
 40
0.6
176
     1
 40
30.0
176
     1
 62
     7
420
 16777215
176
     1
 90
        2
176
     1
 90
        2
176
     1
 62
     7
176
     1
 62
     7
176
     1
 90
        1
176
     1
 90
        1
176
     1
 40
40.0
176
     1
 90
       11
176
     1
 62
     7
176
     1
 40
1.0
176
     1
 90
        1
176
     1
 90
        6
176
     1
 90
        2
176
     1
 62
     7
176
     1
 90
        6
176
     1
 90
        0
176
     1
 90
        0
176
     1
290
     0
176
     1
 90
        1
176
     1
 40
0.0
176
     1
 90
        0
176
     1
290
     0
176
     1
290
     1
176
     1
290
     1
176
     1
290
     0
176
     1
290
     0
176
     1
290
     0
176
     1
290
     0
176
     1
290
     0
176
     1
290
     0
176
     1
 90
       50
176
     1
 40
0.0
176
     1
 40
1.0
176
     1
 90
        0
176
     1
 62
    18
420
        0
176
     1
 90
       50
176
     1
 90
        3
176
     1
 62
     5
420
      255
176
     1
290
     0
176
     1
 90
       50
176
     1
 90
       50
176
     1
 90
       50
176
     1
290
     0
176
     1
 90
       50
176
     1
 62
   256
176
     0
 40
1.0
176
     0
 90
        2
176
     1
  1
strokes_ogs.tif
176
     1
290
     0
176
     1
 40
1.0
176
     1
 40
1.0
176
     1
  0
VISUALSTYLE
  5
36
102
{ACAD_REACTORS
330
29
102
}
330
29
100
AcDbVisualStyle
  2
Thicken
 70
    13
177
     3
291
     1
 70
    58
 90
        2
176
     1
 90
        2
176
     1
 90
        0
176
     1
 90
        0
176
     1
 40
0.6
176
     1
 40
30.0
176
     1
 62
     7
420
 16777215
176
     1
 90
        1
176
     1
 90
        4
176
     1
 62
     7
176
     1
 62
   257
176
     1
 90
        1
176
     1
 90
        1
176
     1
 40
1.0
176
     1
 90
       12
176
     1
 62
     7
176
     1
 40
1.0
176
     1
 90
        1
176
     1
 90
        6
176
     1
 90
        2
176
     1
 62
     7
176
     1
 90
        5
176
     1
 90
        0
176
     1
 90
        0
176
     1
290
     0
176
     1
 90
        1
176
     1
 40
0.0
176
     1
 90
        0
176
     1
290
     0
176
     1
290
     1
176
     1
290
     1
176
     1
290
     0
176
     1
290
     0
176
     1
290
     0
176
     1
290
     0
176
     1
290
     0
176
     1
290
     0
176
     1
 90
       50
176
     1
 40
0.0
176
     1
 40
1.0
176
     1
 90
        0
176
     1
 62
    18
420
        0
176
     1
 90
       50
176
     1
 90
        3
176
     1
 62
     5
420
      255
176
     1
290
     0
176
     1
 90
       50
176
     1
 90
       50
176
     1
 90
       50
176
     1
290
     0
176
     1
 90
       50
176
     1
 62
   256
176
     0
 40
1.0
176
     0
 90
        2
176
     1
  1
strokes_ogs.tif
176
     1
290
     0
176
     1
 40
1.0
176
     1
 40
1.0
176
     1
  0
VISUALSTYLE
  5
30
102
{ACAD_REACTORS
330
29
102
}
330
29
100
AcDbVisualStyle
  2
Wireframe
 70
     5
177
     3
291
     0
 70
    58
 90
        0
176
     1
 90
        2
176
     1
 90
        0
176
     1
 90
        0
176
     1
 40
0.6
176
     1
 40
30.0
176
     1
 62
     7
420
 16777215
176
     1
 90
        1
176
     1
 90
        4
176
     1
 62
     7
176
     1
 62
   257
176
     1
 90
        1
176
     1
 90
        1
176
     1
 40
1.0
176
     1
 90
        0
176
     1
 62
   257
176
     1
 40
1.0
176
     1
 90
        1
176
     1
 90
        6
176
     1
 90
        2
176
     1
 62
     7
176
     1
 90
        3
176
     1
 90
        0
176
     1
 90
        0
176
     1
290
     0
176
     1
 90
        1
176
     1
 40
0.0
176
     1
 90
        0
176
     1
290
     0
176
     1
290
     1
176
     1
290
     1
176
     1
290
     0
176
     1
290
     0
176
     1
290
     0
176
     1
290
     0
176
     1
290
     0
176
     1
290
     0
176
     1
 90
       50
176
     1
 40
0.0
176
     1
 40
1.0
176
     1
 90
        0
176
     1
 62
    18
420
        0
176
     1
 90
       50
176
     1
 90
        3
176
     1
 62
     5
420
      255
176
     1
290
     0
176
     1
 90
       50
176
     1
 90
       50
176
     1
 90
       50
176
     1
290
     0
176
     1
 90
       50
176
     1
 62
   256
176
     0
 40
1.0
176
     0
 90
        2
176
     1
  1
strokes_ogs.tif
176
     1
290
     0
176
     1
 40
1.0
176
     1
 40
1.0
176
     1
  0
VISUALSTYLE
  5
3C
102
{ACAD_REACTORS
330
29
102
}
330
29
100
AcDbVisualStyle
  2
X-Ray
 70
    25
177
     3
291
     0
 70
    58
 90
        2
176
     1
 90
        2
176
     1
 90
        1
176
     1
 90
        1
176
     1
 40
0.5
176
     1
 40
30.0
176
     1
 62
     7
420
 16777215
176
     1
 90
        1
176
     1
 90
        0
176
     1
 62
     7
176
     1
 62
   257
176
     1
 90
        1
176
     1
 90
        1
176
     1
 40
1.0
176
     1
 90
        8
176
     1
 62
     7
176
     1
 40
1.0
176
     1
 90
        1
176
     1
 90
        6
176
     1
 90
        2
176
     1
 62
     7
176
     1
 90
        3
176
     1
 90
        0
176
     1
 90
        0
176
     1
290
     0
176
     1
 90
       13
176
     1
 40
0.0
176
     1
 90
        0
176
     1
290
     0
176
     1
290
     1
176
     1
290
     1
176
     1
290
     0
176
     1
290
     0
176
     1
290
     0
176
     1
290
     0
176
     1
290
     0
176
     1
290
     0
176
     1
 90
       50
176
     1
 40
0.0
176
     1
 40
1.0
176
     1
 90
        0
176
     1
 62
    18
420
        0
176
     1
 90
       50
176
     1
 90
        3
176
     1
 62
     5
420
      255
176
     1
290
     0
176
     1
 90
       50
176
     1
 90
       50
176
     1
 90
       50
176
     1
290
     0
176
     1
 90
       50
176
     1
 62
   256
176
     0
 40
1.0
176
     0
 90
        2
176
     1
  1
strokes_ogs.tif
176
     1
290
     0
176
     1
 40
1.0
176
     1
 40
1.0
176
     1
  0
DICTIONARYVAR
  5
8E
102
{ACAD_REACTORS
330
89
102
}
330
89
100
DictionaryVariables
280
     0
  1
1:1
  0
DICTIONARYVAR
  5
8B
102
{ACAD_REACTORS
330
89
102
}
330
89
100
DictionaryVariables
280
     0
  1
STANDARD
  0
DICTIONARYVAR
  5
8A
102
{ACAD_REACTORS
330
89
102
}
330
89
100
DictionaryVariables
280
     0
  1
STANDARD
  0
DICTIONARYVAR
  5
8C
102
{ACAD_REACTORS
330
89
102
}
330
89
100
DictionaryVariables
280
     0
  1
Imperial24
  0
DICTIONARYVAR
  5
8D
102
{ACAD_REACTORS
330
89
102
}
330
89
100
DictionaryVariables
280
     0
  1
Imperial24
  0
DICTIONARY
  5
1A
330
19
100
AcDbDictionary
280
     1
281
     1
  3
BUMPTILE
360
1C
  3
DIFFUSETILE
360
1B
  3
OPACITYTILE
360
1F
  3
REFLECTIONTILE
360
1E
  3
REFRACTIONTILE
360
20
  3
SPECULARTILE
360
1D
  0
DICTIONARY
  5
12
330
11
100
AcDbDictionary
280
     1
281
     1
  3
BUMPTILE
360
14
  3
DIFFUSETILE
360
13
  3
OPACITYTILE
360
17
  3
REFLECTIONTILE
360
16
  3
REFRACTIONTILE
360
18
  3
SPECULARTILE
360
15
  0
DICTIONARY
  5
22
330
21
100
AcDbDictionary
280
     1
281
     1
  3
BUMPTILE
360
24
  3
DIFFUSETILE
360
23
  3
OPACITYTILE
360
27
  3
REFLECTIONTILE
360
26
  3
REFRACTIONTILE
360
28
  3
SPECULARTILE
360
25
  0
DICTIONARY
  5
8F
330
65
100
AcDbDictionary
280
     1
281
     1
  3
ACAD_ROUNDTRIP_2008_TABLESTYLE_CELLSTYLEMAP
360
90
  0
XRECORD
  5
1C
102
{ACAD_REACTORS
330
1A
102
}
330
1A
100
AcDbXrecord
280
     1
270
     1
271
     1
  0
XRECORD
  5
1B
102
{ACAD_REACTORS
330
1A
102
}
330
1A
100
AcDbXrecord
280
     1
270
     1
271
     1
  0
XRECORD
  5
1F
102
{ACAD_REACTORS
330
1A
102
}
330
1A
100
AcDbXrecord
280
     1
270
     1
271
     1
  0
XRECORD
  5
1E
102
{ACAD_REACTORS
330
1A
102
}
330
1A
100
AcDbXrecord
280
     1
270
     1
271
     1
  0
XRECORD
  5
20
102
{ACAD_REACTORS
330
1A
102
}
330
1A
100
AcDbXrecord
280
     1
270
     1
271
     1
  0
XRECORD
  5
1D
102
{ACAD_REACTORS
330
1A
102
}
330
1A
100
AcDbXrecord
280
     1
270
     1
271
     1
  0
XRECORD
  5
14
102
{ACAD_REACTORS
330
12
102
}
330
12
100
AcDbXrecord
280
     1
270
     1
271
     1
  0
XRECORD
  5
13
102
{ACAD_REACTORS
330
12
102
}
330
12
100
AcDbXrecord
280
     1
270
     1
271
     1
  0
XRECORD
  5
17
102
{ACAD_REACTORS
330
12
102
}
330
12
100
AcDbXrecord
280
     1
270
     1
271
     1
  0
XRECORD
  5
16
102
{ACAD_REACTORS
330
12
102
}
330
12
100
AcDbXrecord
280
     1
270
     1
271
     1
  0
XRECORD
  5
18
102
{ACAD_REACTORS
330
12
102
}
330
12
100
AcDbXrecord
280
     1
270
     1
271
     1
  0
XRECORD
  5
15
102
{ACAD_REACTORS
330
12
102
}
330
12
100
AcDbXrecord
280
     1
270
     1
271
     1
  0
XRECORD
  5
24
102
{ACAD_REACTORS
330
22
102
}
330
22
100
AcDbXrecord
280
     1
270
     1
271
     1
  0
XRECORD
  5
23
102
{ACAD_REACTORS
330
22
102
}
330
22
100
AcDbXrecord
280
     1
270
     1
271
     1
  0
XRECORD
  5
27
102
{ACAD_REACTORS
330
22
102
}
330
22
100
AcDbXrecord
280
     1
270
     1
271
     1
  0
XRECORD
  5
26
102
{ACAD_REACTORS
330
22
102
}
330
22
100
AcDbXrecord
280
     1
270
     1
271
     1
  0
XRECORD
  5
28
102
{ACAD_REACTORS
330
22
102
}
330
22
100
AcDbXrecord
280
     1
270
     1
271
     1
  0
XRECORD
  5
25
102
{ACAD_REACTORS
330
22
102
}
330
22
100
AcDbXrecord
280
     1
270
     1
271
     1
  0
CELLSTYLEMAP
  5
90
102
{ACAD_REACTORS
330
8F
102
}
330
8F
100
AcDbCellStyleMap
 90
        3
300
CELLSTYLE
  1
TABLEFORMAT_BEGIN
 90
        5
170
     1
 91
        0
 92
    32768
 62
   257
 93
        1
300
CONTENTFORMAT
  1
CONTENTFORMAT_BEGIN
 90
        0
 91
        0
 92
      512
 93
        0
300

 40
0.0
140
1.0
 94
        5
 62
     0
340
55
144
0.25
309
CONTENTFORMAT_END
171
     0
 94
        0
309
TABLEFORMAT_END
  1
CELLSTYLE_BEGIN
 90
        1
 91
        1
300
_TITLE
309
CELLSTYLE_END
300
CELLSTYLE
  1
TABLEFORMAT_BEGIN
 90
        5
170
     1
 91
        0
 92
        0
 62
   257
 93
        1
300
CONTENTFORMAT
  1
CONTENTFORMAT_BEGIN
 90
        0
 91
        0
 92
      512
 93
        0
300

 40
0.0
140
1.0
 94
        5
 62
     0
340
55
144
0.18
309
CONTENTFORMAT_END
171
     0
 94
        0
309
TABLEFORMAT_END
  1
CELLSTYLE_BEGIN
 90
        2
 91
        1
300
_HEADER
309
CELLSTYLE_END
300
CELLSTYLE
  1
TABLEFORMAT_BEGIN
 90
        5
170
     1
 91
        0
 92
        0
 62
   257
 93
        1
300
CONTENTFORMAT
  1
CONTENTFORMAT_BEGIN
 90
        0
 91
        0
 92
      512
 93
        0
300

 40
0.0
140
1.0
 94
        2
 62
     0
340
55
144
0.18
309
CONTENTFORMAT_END
171
     0
 94
        0
309
TABLEFORMAT_END
  1
CELLSTYLE_BEGIN
 90
        3
 91
        2
300
_DATA
309
CELLSTYLE_END
  0
ENDSEC
  0
EOF
